<svg xmlns="http://www.w3.org/2000/svg" xmlns:xlink="http://www.w3.org/1999/xlink" width="236" zoomAndPan="magnify" viewBox="0 0 177 187.499995" height="250" preserveAspectRatio="xMidYMid meet" version="1.0"><defs><clipPath id="3976327d26"><path d="M 147.96875 84.21875 L 176.015625 84.21875 L 176.015625 92 L 147.96875 92 Z M 147.96875 84.21875 " clip-rule="nonzero"/></clipPath><clipPath id="748ece4878"><path d="M 0.234375 84 L 29 84 L 29 92 L 0.234375 92 Z M 0.234375 84 " clip-rule="nonzero"/></clipPath><clipPath id="139943b85e"><path d="M 68 174 L 108 174 L 108 186.253906 L 68 186.253906 Z M 68 174 " clip-rule="nonzero"/></clipPath><clipPath id="5fa59e0716"><path d="M 61.007812 82 L 78 82 L 78 110 L 61.007812 110 Z M 61.007812 82 " clip-rule="nonzero"/></clipPath><clipPath id="eacb0330cd"><path d="M 99 82 L 115.613281 82 L 115.613281 110 L 99 110 Z M 99 82 " clip-rule="nonzero"/></clipPath><clipPath id="bf3c8f64bb"><path d="M 80 76.570312 L 97 76.570312 L 97 114.71875 L 80 114.71875 Z M 80 76.570312 " clip-rule="nonzero"/></clipPath></defs><path fill="#ffffff" d="M 118.460938 111.433594 C 107.722656 124.472656 107.722656 135.59375 107.722656 135.59375 L 107.722656 143.140625 L 68.789062 143.140625 L 68.789062 135.59375 C 68.789062 135.59375 68.789062 124.472656 58.050781 111.433594 C 58.050781 111.433594 44.753906 95.921875 52.253906 75.804688 C 59.554688 56.222656 76.609375 50.050781 87.386719 50.050781 C 87.679688 50.050781 87.972656 50.058594 88.253906 50.066406 C 88.542969 50.058594 88.828125 50.050781 89.125 50.050781 C 99.902344 50.050781 116.957031 56.226562 124.257812 75.804688 C 131.757812 95.921875 118.460938 111.433594 118.460938 111.433594 Z M 133.613281 90.175781 C 133.867188 84.480469 132.957031 78.808594 130.910156 73.324219 C 128.902344 67.9375 126.121094 63.105469 122.644531 58.957031 C 119.523438 55.234375 115.839844 52.058594 111.699219 49.527344 C 108.0625 47.300781 104.128906 45.601562 100.011719 44.472656 C 96.375 43.476562 92.609375 42.949219 89.125 42.949219 C 88.832031 42.949219 88.542969 42.953125 88.253906 42.960938 C 87.96875 42.953125 87.679688 42.949219 87.386719 42.949219 C 83.902344 42.949219 80.136719 43.476562 76.5 44.472656 C 72.382812 45.601562 68.449219 47.300781 64.8125 49.527344 C 60.671875 52.058594 56.988281 55.230469 53.867188 58.957031 C 50.390625 63.105469 47.609375 67.9375 45.597656 73.324219 C 43.554688 78.808594 42.644531 84.480469 42.902344 90.175781 C 43.101562 94.707031 44.039062 99.238281 45.6875 103.644531 C 48.332031 110.738281 51.957031 115.222656 52.597656 115.984375 C 57.378906 121.800781 59.617188 127.074219 60.652344 130.472656 C 61.59375 133.5625 61.6875 135.578125 61.6875 135.59375 L 61.6875 145.152344 C 61.6875 147.960938 63.964844 150.242188 66.777344 150.242188 L 109.734375 150.242188 C 112.546875 150.242188 114.824219 147.960938 114.824219 145.152344 L 114.824219 135.667969 C 114.835938 135.425781 114.957031 133.21875 116.050781 129.863281 C 117.113281 126.601562 119.339844 121.546875 123.914062 115.984375 C 124.554688 115.222656 128.179688 110.738281 130.824219 103.644531 C 132.46875 99.238281 133.40625 94.707031 133.613281 90.175781 " fill-opacity="1" fill-rule="nonzero"/><path fill="#ffffff" d="M 91.804688 3.671875 C 91.804688 1.710938 90.21875 0.121094 88.253906 0.121094 C 86.292969 0.121094 84.703125 1.710938 84.703125 3.671875 L 84.703125 28.417969 L 91.804688 28.417969 L 91.804688 3.671875 " fill-opacity="1" fill-rule="nonzero"/><g clip-path="url(#3976327d26)"><path fill="#ffffff" d="M 172.726562 84.589844 L 147.980469 84.589844 L 147.980469 91.691406 L 172.726562 91.691406 C 174.6875 91.691406 176.277344 90.101562 176.277344 88.140625 C 176.277344 86.179688 174.6875 84.589844 172.726562 84.589844 " fill-opacity="1" fill-rule="nonzero"/></g><path fill="#ffffff" d="M 132.996094 127.859375 L 127.976562 132.882812 L 145.472656 150.378906 C 146.859375 151.765625 149.109375 151.765625 150.496094 150.378906 C 151.882812 148.992188 151.882812 146.742188 150.496094 145.355469 L 132.996094 127.859375 " fill-opacity="1" fill-rule="nonzero"/><path fill="#ffffff" d="M 150.496094 30.921875 C 151.882812 29.535156 151.882812 27.289062 150.496094 25.902344 C 149.109375 24.515625 146.859375 24.515625 145.472656 25.902344 L 127.976562 43.398438 L 132.996094 48.421875 L 150.496094 30.921875 " fill-opacity="1" fill-rule="nonzero"/><g clip-path="url(#748ece4878)"><path fill="#ffffff" d="M 28.53125 84.589844 L 3.785156 84.589844 C 1.824219 84.589844 0.234375 86.179688 0.234375 88.140625 C 0.234375 90.101562 1.824219 91.691406 3.785156 91.691406 L 28.53125 91.691406 L 28.53125 84.589844 " fill-opacity="1" fill-rule="nonzero"/></g><path fill="#ffffff" d="M 26.015625 145.355469 C 24.628906 146.742188 24.628906 148.992188 26.015625 150.378906 C 27.402344 151.765625 29.652344 151.765625 31.039062 150.378906 L 48.535156 132.882812 L 43.511719 127.859375 L 26.015625 145.355469 " fill-opacity="1" fill-rule="nonzero"/><path fill="#ffffff" d="M 43.511719 48.421875 L 48.535156 43.398438 L 31.039062 25.902344 C 29.652344 24.515625 27.402344 24.515625 26.015625 25.902344 C 24.628906 27.289062 24.628906 29.535156 26.015625 30.921875 L 43.511719 48.421875 " fill-opacity="1" fill-rule="nonzero"/><path fill="#ffffff" d="M 87.5625 59.128906 C 87.421875 57.058594 85.527344 55.574219 83.484375 55.914062 C 73.984375 57.496094 68.105469 62.261719 64.742188 66.222656 C 62.949219 68.332031 61.683594 70.425781 60.824219 72.136719 C 59.824219 74.121094 60.890625 76.515625 63.03125 77.09375 L 63.128906 77.121094 C 64.730469 77.550781 66.414062 76.800781 67.160156 75.320312 C 69.070312 71.527344 73.921875 64.726562 84.632812 62.925781 C 86.417969 62.625 87.6875 61.042969 87.570312 59.238281 L 87.5625 59.128906 " fill-opacity="1" fill-rule="nonzero"/><path fill="#ffffff" d="M 108.148438 153.566406 L 68.125 153.566406 C 66.234375 153.566406 64.699219 155.15625 64.699219 157.117188 C 64.699219 159.078125 66.234375 160.667969 68.125 160.667969 L 108.148438 160.667969 C 110.042969 160.667969 111.578125 159.078125 111.578125 157.117188 C 111.578125 155.15625 110.042969 153.566406 108.148438 153.566406 " fill-opacity="1" fill-rule="nonzero"/><path fill="#ffffff" d="M 108.148438 163.992188 L 68.125 163.992188 C 66.234375 163.992188 64.699219 165.582031 64.699219 167.542969 C 64.699219 169.503906 66.234375 171.09375 68.125 171.09375 L 108.148438 171.09375 C 110.042969 171.09375 111.578125 169.503906 111.578125 167.542969 C 111.578125 165.582031 110.042969 163.992188 108.148438 163.992188 " fill-opacity="1" fill-rule="nonzero"/><g clip-path="url(#139943b85e)"><path fill="#ffffff" d="M 106.164062 174.417969 L 70.109375 174.417969 C 69.054688 174.417969 68.527344 175.691406 69.273438 176.433594 L 75.246094 182.410156 C 76.992188 184.15625 79.242188 185.316406 81.683594 185.703125 C 83.347656 185.96875 85.503906 186.179688 88.136719 186.179688 C 90.773438 186.179688 92.929688 185.96875 94.59375 185.703125 C 97.03125 185.316406 99.28125 184.15625 101.027344 182.410156 L 107 176.433594 C 107.746094 175.691406 107.21875 174.417969 106.164062 174.417969 " fill-opacity="1" fill-rule="nonzero"/></g><g clip-path="url(#5fa59e0716)"><path fill="#ff729f" d="M 74.828125 109.347656 C 74.019531 109.347656 73.484375 109.078125 72.945312 108.539062 L 62.199219 97.792969 C 61.125 96.71875 61.125 95.109375 62.199219 94.035156 L 72.945312 83.289062 C 74.019531 82.210938 75.632812 82.210938 76.707031 83.289062 C 77.78125 84.363281 77.78125 85.972656 76.707031 87.046875 L 67.84375 95.914062 L 76.707031 104.777344 C 77.78125 105.855469 77.78125 107.464844 76.707031 108.539062 C 76.171875 109.078125 75.632812 109.347656 74.828125 109.347656 Z M 74.828125 109.347656 " fill-opacity="1" fill-rule="nonzero"/></g><g clip-path="url(#eacb0330cd)"><path fill="#ff729f" d="M 101.691406 109.347656 C 100.886719 109.347656 100.347656 109.078125 99.8125 108.539062 C 98.738281 107.464844 98.738281 105.855469 99.8125 104.777344 L 108.675781 95.914062 L 99.8125 87.046875 C 98.738281 85.972656 98.738281 84.363281 99.8125 83.289062 C 100.886719 82.210938 102.496094 82.210938 103.570312 83.289062 L 114.316406 94.035156 C 115.394531 95.109375 115.394531 96.71875 114.316406 97.792969 L 103.570312 108.539062 C 103.035156 109.078125 102.496094 109.347656 101.691406 109.347656 Z M 101.691406 109.347656 " fill-opacity="1" fill-rule="nonzero"/></g><g clip-path="url(#bf3c8f64bb)"><path fill="#ff729f" d="M 82.886719 114.71875 C 82.617188 114.71875 82.347656 114.71875 82.082031 114.449219 C 80.738281 113.914062 79.929688 112.570312 80.46875 110.957031 L 91.214844 78.71875 C 91.75 77.375 93.09375 76.570312 94.707031 77.109375 C 96.050781 77.644531 96.855469 78.988281 96.320312 80.601562 L 85.574219 112.839844 C 85.035156 113.914062 83.960938 114.71875 82.886719 114.71875 Z M 82.886719 114.71875 " fill-opacity="1" fill-rule="nonzero"/></g></svg>