<?xml version="1.0" encoding="UTF-8"?>
<svg xmlns="http://www.w3.org/2000/svg" xmlns:xlink="http://www.w3.org/1999/xlink" viewBox="0 0 500 400">
  <defs>
    <linearGradient id="linear-gradient" x1="146.58" y1="317.03" x2="341.46" y2="317.03" gradientUnits="userSpaceOnUse">
      <stop offset="0" stop-color="#86b9b4"/>
      <stop offset="1" stop-color="#9cc7c7"/>
    </linearGradient>
    <linearGradient id="linear-gradient-2" x1="251.3" y1="282.53" x2="296.8" y2="282.53" gradientUnits="userSpaceOnUse">
      <stop offset="0" stop-color="#2ca2a0"/>
      <stop offset="1" stop-color="#18898e"/>
    </linearGradient>
    <linearGradient id="linear-gradient-3" x1="249.35" y1="304.93" x2="302.62" y2="304.93" xlink:href="#linear-gradient-2"/>
    <linearGradient id="linear-gradient-4" x1="226.08" y1="307.17" x2="292.34" y2="307.17" xlink:href="#linear-gradient-2"/>
    <linearGradient id="linear-gradient-5" x1="215.8" y1="313.13" x2="282.06" y2="313.13" xlink:href="#linear-gradient-2"/>
    <linearGradient id="linear-gradient-6" x1="205.52" y1="319.09" x2="271.78" y2="319.09" xlink:href="#linear-gradient-2"/>
    <linearGradient id="linear-gradient-7" x1="195.24" y1="320.24" x2="245.15" y2="320.24" xlink:href="#linear-gradient-2"/>
    <linearGradient id="linear-gradient-8" x1="201.58" y1="355.76" x2="225.22" y2="355.76" xlink:href="#linear-gradient-2"/>
    <linearGradient id="linear-gradient-9" x1="162.91" y1="333.44" x2="186.55" y2="333.44" xlink:href="#linear-gradient-2"/>
    <linearGradient id="linear-gradient-10" x1="294.12" y1="303.09" x2="319" y2="303.09" gradientUnits="userSpaceOnUse">
      <stop offset="0" stop-color="#fcd24a"/>
      <stop offset="1" stop-color="#e5bb2a"/>
    </linearGradient>
    <linearGradient id="linear-gradient-11" x1="170.5" y1="-21.48" x2="188.52" y2="-18.08" gradientTransform="translate(9.73 247.69) rotate(30) skewX(-30)" xlink:href="#linear-gradient-2"/>
    <linearGradient id="linear-gradient-12" x1="211.79" y1="-20.35" x2="236" y2="-15.78" gradientTransform="translate(9.73 247.69) rotate(30) skewX(-30)" xlink:href="#linear-gradient-2"/>
    <linearGradient id="linear-gradient-13" x1="81.57" y1="287.02" x2="97.75" y2="287.02" gradientUnits="userSpaceOnUse">
      <stop offset="0" stop-color="#3a4983"/>
      <stop offset="1" stop-color="#282a55"/>
    </linearGradient>
    <linearGradient id="linear-gradient-14" x1="81.07" y1="256.31" x2="112.87" y2="256.31" xlink:href="#linear-gradient-2"/>
    <linearGradient id="New_Gradient_Swatch_1" data-name="New Gradient Swatch 1" x1="83.99" y1="306.27" x2="129.71" y2="306.27" gradientUnits="userSpaceOnUse">
      <stop offset="0" stop-color="#000" stop-opacity=".3"/>
      <stop offset="1" stop-color="#fff" stop-opacity="0"/>
    </linearGradient>
    <linearGradient id="linear-gradient-15" x1="114.83" y1="314.64" x2="150.84" y2="314.64" gradientUnits="userSpaceOnUse">
      <stop offset="0" stop-color="#d1d3d4"/>
      <stop offset=".32" stop-color="rgba(225, 227, 227, .63)" stop-opacity=".63"/>
      <stop offset=".65" stop-color="rgba(241, 242, 242, .29)" stop-opacity=".29"/>
      <stop offset=".88" stop-color="rgba(251, 251, 251, .08)" stop-opacity=".08"/>
      <stop offset="1" stop-color="#fff" stop-opacity="0"/>
    </linearGradient>
    <linearGradient id="linear-gradient-16" x1="109.87" y1="288.9" x2="124.91" y2="314.95" xlink:href="#linear-gradient-2"/>
    <linearGradient id="linear-gradient-17" x1="626.56" y1="294.66" x2="614.91" y2="313.3" gradientTransform="translate(742.48) rotate(-180) scale(1 -1)" gradientUnits="userSpaceOnUse">
      <stop offset="0" stop-color="#18898e"/>
      <stop offset="1" stop-color="#06616f"/>
    </linearGradient>
    <linearGradient id="linear-gradient-18" x1="632.37" y1="291.22" x2="620.75" y2="309.82" gradientTransform="translate(742.48) rotate(-180) scale(1 -1)" xlink:href="#linear-gradient-13"/>
    <linearGradient id="linear-gradient-19" x1="623.15" y1="284" x2="634.41" y2="284" gradientTransform="translate(742.48) rotate(-180) scale(1 -1)" xlink:href="#linear-gradient-13"/>
    <linearGradient id="linear-gradient-20" x1="620.38" y1="269.78" x2="629.53" y2="275.07" gradientTransform="translate(742.48) rotate(-180) scale(1 -1)" gradientUnits="userSpaceOnUse">
      <stop offset="0" stop-color="#e6e7e8"/>
      <stop offset=".97" stop-color="#bcbec0"/>
      <stop offset="1" stop-color="#d1d3d4"/>
    </linearGradient>
    <linearGradient id="linear-gradient-21" x1="624.98" y1="265.25" x2="632.35" y2="265.25" gradientTransform="translate(742.48) rotate(-180) scale(1 -1)" xlink:href="#linear-gradient-13"/>
    <linearGradient id="linear-gradient-22" x1="627.29" y1="273.76" x2="637.18" y2="279.47" xlink:href="#linear-gradient-20"/>
    <linearGradient id="linear-gradient-23" x1="130.9" y1="298.64" x2="117.64" y2="319.87" xlink:href="#linear-gradient-2"/>
    <linearGradient id="linear-gradient-24" x1="622.37" y1="303.01" x2="614.57" y2="315.5" xlink:href="#linear-gradient-17"/>
    <linearGradient id="New_Gradient_Swatch_1-2" data-name="New Gradient Swatch 1" x1="43.44" y1="311.08" x2="74.02" y2="315.83" xlink:href="#New_Gradient_Swatch_1"/>
    <linearGradient id="linear-gradient-25" x1="31.61" y1="312.68" x2="56.82" y2="312.68" gradientUnits="userSpaceOnUse">
      <stop offset="0" stop-color="#e5b53e"/>
      <stop offset="1" stop-color="#caa239"/>
    </linearGradient>
    <linearGradient id="linear-gradient-26" x1="31.61" y1="308.63" x2="56.82" y2="308.63" xlink:href="#linear-gradient-10"/>
    <linearGradient id="linear-gradient-27" x1="34.99" y1="308.28" x2="53.44" y2="308.28" gradientUnits="userSpaceOnUse">
      <stop offset="0" stop-color="#e5bb2a"/>
      <stop offset="1" stop-color="#fcd24a"/>
    </linearGradient>
    <linearGradient id="linear-gradient-28" y1="308.1" y2="308.1" xlink:href="#linear-gradient-25"/>
    <linearGradient id="linear-gradient-29" x1="31.61" y1="304.05" x2="56.82" y2="304.05" xlink:href="#linear-gradient-10"/>
    <linearGradient id="linear-gradient-30" y1="303.7" y2="303.7" xlink:href="#linear-gradient-27"/>
    <linearGradient id="linear-gradient-31" y1="303.52" y2="303.52" xlink:href="#linear-gradient-25"/>
    <linearGradient id="linear-gradient-32" x1="31.61" y1="299.47" x2="56.82" y2="299.47" xlink:href="#linear-gradient-10"/>
    <linearGradient id="linear-gradient-33" y1="299.11" y2="299.11" xlink:href="#linear-gradient-27"/>
    <linearGradient id="linear-gradient-34" y1="298.93" y2="298.93" xlink:href="#linear-gradient-25"/>
    <linearGradient id="linear-gradient-35" x1="31.61" y1="294.88" x2="56.82" y2="294.88" xlink:href="#linear-gradient-10"/>
    <linearGradient id="linear-gradient-36" y1="294.53" y2="294.53" xlink:href="#linear-gradient-27"/>
    <linearGradient id="linear-gradient-37" y1="294.35" y2="294.35" xlink:href="#linear-gradient-25"/>
    <linearGradient id="linear-gradient-38" x1="31.61" y1="290.3" x2="56.82" y2="290.3" xlink:href="#linear-gradient-10"/>
    <linearGradient id="linear-gradient-39" y1="289.94" y2="289.94" xlink:href="#linear-gradient-27"/>
    <linearGradient id="linear-gradient-40" y1="289.76" y2="289.76" xlink:href="#linear-gradient-25"/>
    <linearGradient id="linear-gradient-41" x1="31.61" y1="285.71" x2="56.82" y2="285.71" xlink:href="#linear-gradient-10"/>
    <linearGradient id="linear-gradient-42" y1="285.36" y2="285.36" xlink:href="#linear-gradient-27"/>
    <linearGradient id="linear-gradient-43" y1="285.18" y2="285.18" xlink:href="#linear-gradient-25"/>
    <linearGradient id="linear-gradient-44" x1="31.61" y1="281.13" x2="56.82" y2="281.13" xlink:href="#linear-gradient-10"/>
    <linearGradient id="linear-gradient-45" y1="280.78" y2="280.78" xlink:href="#linear-gradient-27"/>
    <linearGradient id="linear-gradient-46" y1="280.59" y2="280.59" xlink:href="#linear-gradient-25"/>
    <linearGradient id="linear-gradient-47" x1="31.61" y1="276.54" x2="56.82" y2="276.54" xlink:href="#linear-gradient-10"/>
    <linearGradient id="linear-gradient-48" y1="276.19" y2="276.19" xlink:href="#linear-gradient-27"/>
    <linearGradient id="linear-gradient-49" y1="276.01" y2="276.01" xlink:href="#linear-gradient-25"/>
    <linearGradient id="linear-gradient-50" x1="31.61" y1="271.96" x2="56.82" y2="271.96" xlink:href="#linear-gradient-10"/>
    <linearGradient id="linear-gradient-51" y1="271.61" y2="271.61" xlink:href="#linear-gradient-27"/>
    <linearGradient id="linear-gradient-52" y1="271.43" y2="271.43" xlink:href="#linear-gradient-25"/>
    <linearGradient id="linear-gradient-53" x1="31.61" y1="267.38" x2="56.82" y2="267.38" xlink:href="#linear-gradient-10"/>
    <linearGradient id="linear-gradient-54" y1="267.02" y2="267.02" xlink:href="#linear-gradient-27"/>
    <linearGradient id="New_Gradient_Swatch_1-3" data-name="New Gradient Swatch 1" x1="68.05" y1="325.98" x2="98.63" y2="330.74" xlink:href="#New_Gradient_Swatch_1"/>
    <linearGradient id="linear-gradient-55" x1="56.35" y1="327.45" x2="81.57" y2="327.45" xlink:href="#linear-gradient-25"/>
    <linearGradient id="linear-gradient-56" x1="56.35" y1="323.4" x2="81.57" y2="323.4" xlink:href="#linear-gradient-10"/>
    <linearGradient id="linear-gradient-57" x1="59.74" y1="323.05" x2="78.18" y2="323.05" xlink:href="#linear-gradient-27"/>
    <linearGradient id="linear-gradient-58" x1="56.35" y1="322.87" x2="81.57" y2="322.87" xlink:href="#linear-gradient-25"/>
    <linearGradient id="linear-gradient-59" x1="56.35" y1="318.82" x2="81.57" y2="318.82" xlink:href="#linear-gradient-10"/>
    <linearGradient id="linear-gradient-60" x1="59.74" y1="318.47" x2="78.18" y2="318.47" xlink:href="#linear-gradient-27"/>
    <linearGradient id="linear-gradient-61" x1="56.35" y1="318.28" x2="81.57" y2="318.28" xlink:href="#linear-gradient-25"/>
    <linearGradient id="linear-gradient-62" x1="56.35" y1="314.23" x2="81.57" y2="314.23" xlink:href="#linear-gradient-10"/>
    <linearGradient id="linear-gradient-63" x1="59.74" y1="313.88" x2="78.18" y2="313.88" xlink:href="#linear-gradient-27"/>
    <linearGradient id="linear-gradient-64" x1="56.35" y1="313.7" x2="81.57" y2="313.7" xlink:href="#linear-gradient-25"/>
    <linearGradient id="linear-gradient-65" x1="56.35" y1="309.65" x2="81.57" y2="309.65" xlink:href="#linear-gradient-10"/>
    <linearGradient id="linear-gradient-66" x1="59.74" y1="309.3" x2="78.18" y2="309.3" xlink:href="#linear-gradient-27"/>
    <linearGradient id="linear-gradient-67" x1="56.35" y1="309.12" x2="81.57" y2="309.12" xlink:href="#linear-gradient-25"/>
    <linearGradient id="linear-gradient-68" x1="56.35" y1="305.07" x2="81.57" y2="305.07" xlink:href="#linear-gradient-10"/>
    <linearGradient id="linear-gradient-69" x1="59.74" y1="304.71" x2="78.18" y2="304.71" xlink:href="#linear-gradient-27"/>
    <linearGradient id="linear-gradient-70" x1="56.35" y1="304.53" x2="81.57" y2="304.53" xlink:href="#linear-gradient-25"/>
    <linearGradient id="linear-gradient-71" x1="56.35" y1="300.48" x2="81.57" y2="300.48" xlink:href="#linear-gradient-10"/>
    <linearGradient id="linear-gradient-72" x1="59.74" y1="300.13" x2="78.18" y2="300.13" xlink:href="#linear-gradient-27"/>
    <linearGradient id="linear-gradient-73" x1="56.35" y1="299.95" x2="81.57" y2="299.95" xlink:href="#linear-gradient-25"/>
    <linearGradient id="linear-gradient-74" x1="56.35" y1="295.9" x2="81.57" y2="295.9" xlink:href="#linear-gradient-10"/>
    <linearGradient id="linear-gradient-75" x1="59.74" y1="295.54" x2="78.18" y2="295.54" xlink:href="#linear-gradient-27"/>
    <linearGradient id="linear-gradient-76" x1="56.35" y1="295.36" x2="81.57" y2="295.36" xlink:href="#linear-gradient-25"/>
    <linearGradient id="linear-gradient-77" x1="56.35" y1="291.31" x2="81.57" y2="291.31" xlink:href="#linear-gradient-10"/>
    <linearGradient id="linear-gradient-78" x1="59.74" y1="290.96" x2="78.18" y2="290.96" xlink:href="#linear-gradient-27"/>
    <linearGradient id="linear-gradient-79" x1="56.35" y1="290.78" x2="81.57" y2="290.78" xlink:href="#linear-gradient-25"/>
    <linearGradient id="linear-gradient-80" x1="56.35" y1="286.73" x2="81.57" y2="286.73" xlink:href="#linear-gradient-10"/>
    <linearGradient id="linear-gradient-81" x1="59.74" y1="286.38" x2="78.18" y2="286.38" xlink:href="#linear-gradient-27"/>
    <linearGradient id="linear-gradient-82" x1="56.35" y1="286.19" x2="81.57" y2="286.19" xlink:href="#linear-gradient-25"/>
    <linearGradient id="linear-gradient-83" x1="56.35" y1="282.14" x2="81.57" y2="282.14" xlink:href="#linear-gradient-10"/>
    <linearGradient id="linear-gradient-84" x1="59.74" y1="281.79" x2="78.18" y2="281.79" xlink:href="#linear-gradient-27"/>
  </defs>
  <g style="isolation: isolate;">
    <g id="Layer_2" data-name="Layer 2">
      <g id="Layer_2-2" data-name="Layer 2">
        <g id="Front">
          <rect width="500" height="400" style="fill: none; stroke-width: 0px;"/>
          <g>
            <polygon points="341.46 303.69 341.46 304.96 223.11 373.28 222.94 373.19 146.58 329.1 146.58 327.83 149.32 326.78 149.84 327.2 159.02 321.91 264.91 260.78 337.07 302.43 341.46 303.69" style="fill: url(#linear-gradient); stroke-width: 0px;"/>
            <polygon points="341.46 303.69 341.46 304.27 223.11 372.61 146.58 328.41 146.58 327.83 149.32 326.78 149.84 327.2 159.02 321.91 264.91 260.78 337.07 302.43 341.46 303.69" style="fill: #e8f9f6; stroke-width: 0px;"/>
            <polygon points="146.57 327.83 223.11 372.02 341.45 303.69 264.91 259.51 146.57 327.83" style="fill: #d2e9e6; stroke-width: 0px;"/>
            <g>
              <polygon points="251.3 275.22 286.4 295.58 296.8 289.84 261.7 269.49 251.3 275.22" style="fill: url(#linear-gradient-2); stroke-width: 0px;"/>
              <polygon points="249.35 291.78 298.73 320.34 302.62 318.09 253.25 289.53 249.35 291.78" style="fill: url(#linear-gradient-3); stroke-width: 0px;"/>
              <polygon points="226.08 290.3 288.45 326.29 292.34 324.04 229.97 288.05 226.08 290.3" style="fill: url(#linear-gradient-4); stroke-width: 0px;"/>
              <polygon points="215.8 296.26 278.17 332.25 282.06 330 219.69 294.01 215.8 296.26" style="fill: url(#linear-gradient-5); stroke-width: 0px;"/>
              <polygon points="205.52 302.22 267.89 338.21 271.78 335.96 209.41 299.97 205.52 302.22" style="fill: url(#linear-gradient-6); stroke-width: 0px;"/>
              <polygon points="195.24 308.17 241.25 334.56 245.15 332.31 199.13 305.92 195.24 308.17" style="fill: url(#linear-gradient-7); stroke-width: 0px;"/>
            </g>
            <g>
              <path d="M224.49,362.89c.25,0,.49-.13.63-.36.19-.34.08-.78-.27-.98l-22.2-12.81c-.34-.21-.79-.08-.98.26-.2.35-.08.79.26.98l22.19,12.82c.11.07.24.1.36.1Z" style="fill: url(#linear-gradient-8); stroke-width: 0px;"/>
              <path d="M185.83,340.57c.25,0,.49-.13.62-.36.2-.34.08-.79-.26-.99l-22.2-12.82c-.34-.2-.78-.08-.98.26-.2.34-.08.78.26.98l22.2,12.82c.11.07.24.1.36.1Z" style="fill: url(#linear-gradient-9); stroke-width: 0px;"/>
            </g>
            <polygon points="298.39 298.38 297.82 299.93 295.4 300.82 295.89 302.3 294.12 303.61 295.58 304.78 294.72 306.32 296.94 307.01 297.13 308.53 299.77 308.64 300.97 309.93 303.62 309.43 305.67 310.28 307.93 309.25 310.49 309.53 312.03 308.13 314.72 307.8 315.29 306.25 317.71 305.36 317.23 303.88 319 302.57 317.53 301.4 318.39 299.86 316.17 299.17 315.98 297.65 313.35 297.54 312.15 296.25 309.49 296.75 307.45 295.91 305.18 296.93 302.62 296.65 301.08 298.05 298.39 298.38" style="fill: url(#linear-gradient-10); stroke-width: 0px;"/>
            <path d="M188.3,332.61c-.17,0-.34-.07-.46-.2-.88-.95-1.22-.85-2.48-.51-.54.15-1.22.33-2.09.45-.31.04-1.05.15-1.39-.36-.32-.47-.04-.98.19-1.38.06-.11.17-.3.22-.43-.21-.07-.85-.17-2.65.08-.45.06-1.81.25-2.24-.64-.33-.67.06-1.51,1.17-2.6.26-.25.56-.52.89-.78-3.83.02-7.67-.05-10.86-.13-.35,0-.62-.3-.62-.65,0-.35.34-.62.65-.62,4.26.12,8.63.14,12.63.08,4.31-2.83,11.12-5.39,15.5-3.09.41.21,1.65.87,1.39,1.86-.47,1.79-8.21,2.39-16.53,2.51-1.92,1.29-2.88,2.37-3.04,2.81.13.02.39.05.89-.02,2.38-.33,3.48-.19,3.93.47.37.55.11,1.15-.14,1.6.71-.11,1.27-.26,1.77-.4,1.31-.35,2.34-.64,3.74.87.24.26.22.66-.03.89-.12.11-.28.17-.43.17ZM192.75,322.21c-2.86,0-6.16,1.18-8.9,2.66,6.83-.18,12.11-.66,13.01-1.45-.09-.09-.28-.25-.69-.47-1-.52-2.16-.75-3.41-.75Z" style="fill: url(#linear-gradient-11); stroke-width: 0px;"/>
            <path d="M226.55,357.91c-.23,0-.46-.13-.57-.35-.16-.31-.03-.69.28-.85.32-.16.32-.7.17-1.17-.23-.72-.84-1.43-1.52-1.33-1.27.19-4.62-.1-5.08-1.47-.15-.45-.08-1.12,1.1-1.78.04-.02.07-.04.09-.05-.25-.19-.75-.46-1.14-.67-1.31-.71-3.09-1.68-4.11-3.31-3.14-.31-6.42-.57-9.62-.76-.35-.02-.61-.32-.59-.67.02-.35.34-.61.67-.59,1.96.12,5.26.34,8.94.68-.1-.35-.16-.72-.19-1.12-.05-.78.16-1.3.64-1.57,1.08-.6,2.76.54,6.15,2.96.25.18.5.36.76.54,6.19.83,11.68,2,12.13,3.6.11.4.07,1-.77,1.59-2.92,2.05-7.7-1.05-11.81-3.96-1.45-.19-2.98-.36-4.56-.53.86.89,2.01,1.51,2.96,2.03,1.16.63,1.92,1.04,1.92,1.8,0,.66-.65,1.03-.86,1.15-.26.14-.39.25-.46.32.45.35,2.36.76,3.64.57,1.39-.2,2.51.95,2.91,2.2.37,1.19.05,2.24-.82,2.68-.09.05-.19.07-.28.07ZM224.89,348.02c3.15,2.08,6.48,3.81,8.29,2.54.24-.17.28-.26.28-.27-.31-.74-3.71-1.55-8.57-2.27ZM216.58,345.72c1.09.11,2.21.22,3.32.35-1.52-1.07-3.14-2.12-3.64-2.06.01.03-.02.14,0,.38.03.49.15.93.32,1.33Z" style="fill: url(#linear-gradient-12); stroke-width: 0px;"/>
          </g>
          <g>
            <path d="M99.89,244.47s.12-1.22.74-1.81c.62-.59,1.47-2.31,1.99-1.73.52.58-.55,1.73-.21,1.64.34-.08,4-2.46,4.32-2.04.32.41-.12.87-.12.87,0,0,1.07-.47,1.32-.11.26.36.02.75-.43,1.05,0,0,.91.24-.24,1.13,0,0,.39.18-.38.86-.76.67-3.19,2.51-5.82,2.24,0,0-1.32-1.58-1.18-2.12Z" style="fill: #f3b698; stroke-width: 0px;"/>
            <path d="M84.23,248.59s0-.03,0-.03l.93,1.54h0c.17.21,1.81,1.99,4.39,1.66,1.53-.19,4.83-1.6,7.56-2.87,1.34-.62,2.54-1.21,3.33-1.6.48-.24.64-.21.77-.38.48-.62-.09-2.78-1.6-2.66-1.09.08-1.83.35-4.07.69-.19.02-.41.06-.63.09-3.68.5-5.28,1.07-5.28,1.07,0,0-.64-3.86-1.79-6.47-.02,0-.93.48-.94.48,0,0-5.69,3.34-2.66,8.49Z" style="fill: #19888e; stroke-width: 0px;"/>
            <path d="M111.08,247.82s.24-1.2.92-1.72c.67-.52,1.7-2.15,2.16-1.52.46.63-.72,1.67-.37,1.61.35-.05,4.23-2.04,4.5-1.6.27.45-.22.85-.22.85,0,0,1.11-.36,1.33.03.22.38-.06.75-.53,1,0,0,.88.34-.35,1.1,0,0,.36.22-.46.82-.82.6-3.43,2.18-6.02,1.65,0,0-1.16-1.71-.97-2.23Z" style="fill: #f3b698; stroke-width: 0px;"/>
            <path d="M95.74,306.27s3.1-1.48,4.15-1.59c1.05-.11,3.38-.26,3.3,1.5-.07,1.76-1.74,3.17-4.6,3.7-2.85.52-5.18.52-5.33,0-.15-.53-.03-2.93-.03-2.93l2.51-.68Z" style="fill: #0f152b; stroke-width: 0px;"/>
            <path d="M85.9,303.44s3-1.47,4.05-1.58c1.05-.11,3.34-.23,3.27,1.54-.08,1.76-1.61,3.12-4.46,3.64-2.85.53-5.18.53-5.33,0-.15-.53-.03-2.93-.03-2.93l2.51-.67Z" style="fill: #0f152b; stroke-width: 0px;"/>
            <path d="M97.75,270.35l-.42,36.34c0,.36-.65.67-1.51.75-.14.02-.29.02-.44.02-1.07,0-2.52-.12-2.52-.54l-2.93-25.63-2.08,22.81c0,.38-.69.69-1.6.75-.11.02-.23.02-.34.02-1.07,0-2.55-.13-2.55-.54l-.68-28.94c-.23-1.28-.46-2.29-.61-2.77-.7-1.97-.44-5.79-.44-5.79.25-.67,5.35.17,9.06.98,1.21.27,2.28.5,2.96.69.19.05.33.09.46.13,2.16.65,3.65,1.73,3.65,1.73Z" style="fill: url(#linear-gradient-13); stroke-width: 0px;"/>
            <path d="M89.93,281.29l-2.08,22.81c0,.38-.69.69-1.6.75l1.72-24.48-.9-6.36,2.87,7.28Z" style="fill: #bcbec0; mix-blend-mode: multiply; stroke-width: 0px;"/>
            <path d="M97.75,270.35l-.42,36.34c0,.36-.65.67-1.51.75v-32.88l-2.18-6.07c.19.05.33.09.46.13,2.16.65,3.65,1.73,3.65,1.73Z" style="fill: #bcbec0; mix-blend-mode: multiply; stroke-width: 0px;"/>
            <path d="M112.82,250.01c-.08.2-.24.21-.64.56-2.03,1.79-6.03,4.54-9.49,5.33-2.53.57-4.71-1.07-4.92-1.22h0s-1.29-1.26-1.29-1.26v.03c.1.72,1.81,13.23,1.5,18.82-.03.03-.06.05-.09.08-1.12.95-2.22,1.53-3.35,1.82-.55.15-1.1.22-1.66.25-.31.01-.63.01-.95-.01-2.09-.11-4.24-.88-6.55-1.63-1.74-.57-2.97-1.31-3.76-2.1v-1.1s0-3.09,0-3.09v-6.25s-.51-15.17-.51-15.17c.32-6.61,5.05-6.8,5.66-6.89.01,0,.04,0,.05,0,.53.03,3.22.95,5.6,1.97,1.54.65,2.97,1.34,3.65,1.86.06.05.12.1.19.16.75.66,1.69,2.03,2.54,3.42,1.23,2.01,2.28,4.06,2.28,4.06,0,0,1,1.88,4.42.44,2.55-1.07,4-1.86,5.12-2.25,1.43-.5,2.54,1.44,2.24,2.16Z" style="fill: url(#linear-gradient-14); stroke-width: 0px;"/>
            <path d="M97.96,272.28s-.06.05-.09.08c-1.12.95-2.22,1.53-3.35,1.82-.55.14-1.1.22-1.66.25-.32.01-.63.01-.95,0,1.93-3.8.92-17.92.49-19.12-.5-1.42-1.42-5.13,0-5.2,1.42-.07,4.07,3.33,4.07,3.33v.03c.1.72,1.81,13.23,1.5,18.82Z" style="fill: #bcbec0; mix-blend-mode: multiply; stroke-width: 0px;"/>
            <path d="M92.4,240.16c-1.29.65-4.48.33-5.28-.17-.79-.51-.39-1.8-.39-1.8.38-.05,3.17.91,5.67,1.97Z" style="fill: #bcbec0; mix-blend-mode: multiply; stroke-width: 0px;"/>
            <path d="M94.38,228.18l-.51.13c.03-.12.05-.21.05-.21l-3.67-.45-3.13,7.94v2.65c.52,1.31,4.76,1.69,4.86,1.74.1.04.06-2.6.15-2.87,0,0,0,0,0-.01,2,.02,3.08-.69,3.08-4.07,0-4.7-.84-4.86-.84-4.86Z" style="fill: #f3b698; stroke-width: 0px;"/>
            <path d="M93.31,234.23s-.55.47-.76.17c-.21-.3-.57-1.28-1.25-.95-.69.33-1.97,3.73-2.57,3.98-.6.24-1.04.76-2.1-.24-1.16-1.09-2.78-3.36-2.75-7.12.03-3.93,2.5-5.72,4.59-5.72,6.46,0,6.6,1.95,6.53,3.32-.09,1.64-1.93,1.4-1.93,1.4,0,0,.89,1.4.66,1.97-.24.57-.97,1.38-.41,3.2Z" style="fill: #282a55; stroke-width: 0px;"/>
            <path d="M129.71,301.8h-39.31s-7.23,4.41-6.33,5.55c4.02,5.12,45.65,2.92,45.65,2.92v-8.47Z" style="fill: url(#New_Gradient_Swatch_1); mix-blend-mode: multiply; stroke-width: 0px;"/>
          </g>
          <g>
            <rect x="114.83" y="306.27" width="36.01" height="16.74" style="fill: url(#linear-gradient-15); mix-blend-mode: multiply; stroke-width: 0px;"/>
            <path d="M131.43,288.56v.61l-14.38,32.56-2.22,1.28c-.34.19-.64.23-.88.13l-.21-.12-.78-.45-8.69-5.02c-.05-.01-.1-.04-.14-.08h-.02c-.2-.17-.33-.46-.33-.85v-23.25c0-2.24,1.56-4.95,3.51-6.06l.77-.45,10.22-5.91c.14-.07.29-.14.43-.21.75-.33,1.43-.34,1.96-.07.05.03.11.06.17.1l8.27,4.79,1.05.61.47.28c.5.41.8,1.13.8,2.1Z" style="fill: url(#linear-gradient-16); stroke-width: 0px;"/>
            <path d="M131.43,288.56v.61l-14.38,32.56-2.22,1.28c-.34.19-.64.23-.88.13l-.21-.12-.78-.45c-.03-.11-.04-.23-.04-.38v-23.25c0-2.44,1.65-5.29,3.75-6.5l11-6.35c.49-.28.98-.46,1.44-.52l1.05.61.47.28c.5.41.8,1.13.8,2.1Z" style="fill: #30bfbf; stroke-width: 0px;"/>
            <path d="M113.44,298.95v23.25c0,.38.11.66.31.82l.21.12c.24.1.55.06.88-.14l1.03-.59.81-.47.39-.23,11.95-6.89.81-.47.22-.13c.77-.44,1.4-1.53,1.4-2.42v-23.25c0-.97-.3-1.69-.79-2.1-.14-.12-.3-.21-.47-.27-.61-.24-1.38-.15-2.24.35l-11,6.35c-1.93,1.12-3.5,3.83-3.5,6.06Z" style="fill: url(#linear-gradient-17); stroke-width: 0px;"/>
            <path d="M107.73,295.45v24.1l1.24.71v-24.09c0-2.22,1.57-4.95,3.5-6.06l11-6.35c.65-.37,1.26-.52,1.79-.44-.1-.14-.2-.26-.32-.36-.14-.11-.3-.21-.47-.26-.6-.24-1.38-.15-2.24.35l-11,6.35c-1.93,1.12-3.5,3.83-3.5,6.06Z" style="fill: url(#linear-gradient-18); stroke-width: 0px;"/>
            <path d="M108.07,286.88s.03.02.05.03c.8.46,2.14.44,2.99-.05l7.56-4.37c.85-.49.89-1.26.08-1.73,0,0-.02,0-.03-.02-.15.06-.29.14-.44.22l-10.21,5.91Z" style="fill: url(#linear-gradient-19); stroke-width: 0px;"/>
            <path d="M117.53,282.39c.34,0,.61-.27.61-.61v-18.72c0-.22-.11-.42-.3-.52-.19-.11-.42-.11-.61,0l-2.24,1.29c-.29.17-.39.54-.22.83.17.29.54.39.83.22l1.33-.77v17.67c0,.33.27.61.61.61Z" style="fill: url(#linear-gradient-20); stroke-width: 0px;"/>
            <path d="M111.34,267.93c.21,0,.42-.05.62-.17l4.95-2.93c.58-.34.77-1.08.43-1.66-.34-.58-1.09-.77-1.66-.43l-4.95,2.93c-.58.34-.77,1.08-.43,1.66.23.38.63.6,1.04.6Z" style="fill: url(#linear-gradient-21); stroke-width: 0px;"/>
            <path d="M109.87,286.79c.33,0,.61-.27.61-.61v-18.34l.45-.26c.29-.17.39-.54.22-.83-.17-.29-.54-.39-.83-.22l-.75.43c-.19.11-.3.31-.3.53v18.7c0,.33.27.61.61.61Z" style="fill: url(#linear-gradient-22); stroke-width: 0px;"/>
            <path d="M131.26,315.06l-13.14,7.59-.41-.16-1.04-.41v-16.32c0-1.62,1.15-3.61,2.56-4.43l8.03-4.64c.62-.37,1.18-.43,1.63-.26l.38.15,1.29.54-.76.86c0,.06.01.12.01.18v15.44l1.45,1.46Z" style="fill: url(#linear-gradient-23); stroke-width: 0px;"/>
            <path d="M131.26,315.06l-13.14,7.59-.41-.16v-16.16c0-1.79,1.21-3.89,2.76-4.77l8.03-4.64c.25-.15.51-.26.76-.33l1.29.54-.76.86c0,.06.01.12.01.18v15.44l1.45,1.46Z" style="fill: #30bfbf; stroke-width: 0px;"/>
            <path d="M118.11,306.33v16.32l.39-.23,12.76-7.36v-16.32c0-.71-.22-1.24-.57-1.54-.11-.08-.22-.15-.35-.19-.44-.18-1.01-.11-1.63.25l-8.03,4.64c-1.41.82-2.56,2.81-2.56,4.43Z" style="fill: url(#linear-gradient-24); stroke-width: 0px;"/>
          </g>
          <g>
            <rect x="43.84" y="308.49" width="29.78" height="9.92" style="fill: url(#New_Gradient_Swatch_1-2); mix-blend-mode: multiply; stroke-width: 0px;"/>
            <g>
              <path d="M56.82,308.63v4.05c0,2.39-4.91,5.87-12.61,5.87s-12.61-3.47-12.61-5.87v-4.05h3.85c2.16-1.05,5.16-1.81,8.76-1.81s6.59.76,8.76,1.81h3.85Z" style="fill: url(#linear-gradient-25); stroke-width: 0px;"/>
              <path d="M56.82,308.63v.82c-.92,2.36-5.64,5.22-12.61,5.22s-11.68-2.85-12.61-5.22v-.82c0,2.39,4.91,5.87,12.61,5.87s12.61-3.48,12.61-5.87Z" style="fill: #ffdf85; stroke-width: 0px;"/>
              <path d="M56.82,308.63c0,2.39-4.91,5.87-12.61,5.87s-12.61-3.48-12.61-5.87,4.91-5.87,12.61-5.87,12.61,3.48,12.61,5.87Z" style="fill: url(#linear-gradient-26); stroke-width: 0px;"/>
              <path d="M44.22,312.74c-5.73,0-9.39-2.64-9.39-4.46s3.66-4.46,9.39-4.46,9.39,2.64,9.39,4.46-3.66,4.46-9.39,4.46Z" style="fill: #ffdf85; stroke-width: 0px;"/>
              <path d="M53.44,308.28c0,1.75-3.59,4.29-9.22,4.29s-9.22-2.54-9.22-4.29,3.59-4.29,9.22-4.29,9.22,2.54,9.22,4.29Z" style="fill: url(#linear-gradient-27); stroke-width: 0px;"/>
              <path d="M39.99,305.46s.06-.01.09,0l.54.31s.32-.06.88-.22c.72-.1,1.22-.12,1.51-.08.47.66.69,1,.66,1.02-.92.02-1.44.07-1.58.15l1.53.89c.62-.21,1.38-.28,2.26-.22.56.07,1.12.27,1.68.59.93.54,1.17,1.16.71,1.87l-.27.25.94.54s.04.04.01.06l-.82.47s-.06.02-.1,0l-.97-.56c-.4.23-1.23.38-2.49.43l-.41-.02-.05-.03c-.39-.65-.55-.99-.5-1.02.95,0,1.65-.05,2.08-.19l-1.63-.94c-.41.13-.93.22-1.57.26-.78.02-1.53-.18-2.27-.61-.93-.54-1.19-1.14-.78-1.82.12-.13.22-.23.32-.28l-.57-.33s-.04-.04,0-.06l.82-.47ZM41.38,307.75c.28.16.64.2,1.08.11l-1.31-.76c-.21.22-.16.42.15.6l.09.05ZM46.57,309.24c.23-.24.21-.43-.06-.58l-.19-.11c-.28-.16-.65-.19-1.1-.09l1.35.78Z" style="fill: #ffdf85; stroke-width: 0px;"/>
            </g>
            <g>
              <path d="M56.82,304.05v4.05c0,2.39-4.91,5.87-12.61,5.87s-12.61-3.47-12.61-5.87v-4.05h3.85c2.16-1.06,5.16-1.82,8.76-1.82s6.59.76,8.76,1.82h3.85Z" style="fill: url(#linear-gradient-28); stroke-width: 0px;"/>
              <path d="M56.82,304.05v.82c-.92,2.36-5.64,5.22-12.61,5.22s-11.68-2.85-12.61-5.22v-.82c0,2.39,4.91,5.87,12.61,5.87s12.61-3.47,12.61-5.87Z" style="fill: #ffdf85; stroke-width: 0px;"/>
              <path d="M56.82,304.05c0,2.39-4.91,5.87-12.61,5.87s-12.61-3.47-12.61-5.87,4.91-5.87,12.61-5.87,12.61,3.47,12.61,5.87Z" style="fill: url(#linear-gradient-29); stroke-width: 0px;"/>
              <path d="M44.22,308.15c-5.73,0-9.39-2.64-9.39-4.46s3.66-4.46,9.39-4.46,9.39,2.64,9.39,4.46-3.66,4.46-9.39,4.46Z" style="fill: #ffdf85; stroke-width: 0px;"/>
              <path d="M53.44,303.7c0,1.75-3.59,4.29-9.22,4.29s-9.22-2.54-9.22-4.29,3.59-4.29,9.22-4.29,9.22,2.54,9.22,4.29Z" style="fill: url(#linear-gradient-30); stroke-width: 0px;"/>
              <path d="M39.99,300.87s.06-.01.09,0l.54.31s.32-.06.88-.22c.72-.1,1.22-.12,1.51-.08.47.66.69,1,.66,1.02-.92.02-1.44.07-1.58.15l1.53.88c.62-.21,1.38-.28,2.26-.21.56.07,1.12.26,1.68.59.93.54,1.17,1.16.71,1.87l-.27.26.94.54s.04.04.01.06l-.82.47s-.06.02-.1,0l-.97-.56c-.4.23-1.23.38-2.49.43l-.41-.02-.05-.03c-.39-.65-.55-.99-.5-1.02.95,0,1.65-.05,2.08-.19l-1.63-.94c-.41.13-.93.22-1.57.26-.78.02-1.53-.18-2.27-.61-.93-.54-1.19-1.14-.78-1.83.12-.13.22-.23.32-.28l-.57-.33s-.04-.04,0-.06l.82-.47ZM41.38,303.17c.28.16.64.2,1.08.11l-1.31-.76c-.21.22-.16.42.15.6l.09.05ZM46.57,304.66c.23-.23.21-.43-.06-.58l-.19-.11c-.28-.16-.65-.19-1.1-.09l1.35.78Z" style="fill: #ffdf85; stroke-width: 0px;"/>
            </g>
            <g>
              <path d="M56.82,299.46v4.05c0,2.39-4.91,5.87-12.61,5.87s-12.61-3.47-12.61-5.87v-4.05h3.85c2.16-1.06,5.16-1.82,8.76-1.82s6.59.76,8.76,1.82h3.85Z" style="fill: url(#linear-gradient-31); stroke-width: 0px;"/>
              <path d="M56.82,299.46v.82c-.92,2.36-5.64,5.22-12.61,5.22s-11.68-2.85-12.61-5.22v-.82c0,2.39,4.91,5.87,12.61,5.87s12.61-3.48,12.61-5.87Z" style="fill: #ffdf85; stroke-width: 0px;"/>
              <path d="M56.82,299.46c0,2.39-4.91,5.87-12.61,5.87s-12.61-3.48-12.61-5.87,4.91-5.87,12.61-5.87,12.61,3.48,12.61,5.87Z" style="fill: url(#linear-gradient-32); stroke-width: 0px;"/>
              <path d="M44.22,303.57c-5.73,0-9.39-2.64-9.39-4.46s3.66-4.46,9.39-4.46,9.39,2.64,9.39,4.46-3.66,4.46-9.39,4.46Z" style="fill: #ffdf85; stroke-width: 0px;"/>
              <path d="M53.44,299.11c0,1.75-3.59,4.29-9.22,4.29s-9.22-2.54-9.22-4.29,3.59-4.29,9.22-4.29,9.22,2.54,9.22,4.29Z" style="fill: url(#linear-gradient-33); stroke-width: 0px;"/>
              <path d="M39.99,296.29s.06-.01.09,0l.54.31s.32-.06.88-.22c.72-.1,1.22-.12,1.51-.08.47.66.69,1,.66,1.02-.92.02-1.44.07-1.58.15l1.53.89c.62-.21,1.38-.28,2.26-.21.56.07,1.12.26,1.68.59.93.54,1.17,1.16.71,1.87l-.27.26.94.54s.04.04.01.05l-.82.48s-.06.02-.1,0l-.97-.56c-.4.23-1.23.38-2.49.43l-.41-.02-.05-.03c-.39-.65-.55-.99-.5-1.02.95,0,1.65-.05,2.08-.19l-1.63-.94c-.41.13-.93.22-1.57.26-.78.02-1.53-.18-2.27-.61-.93-.54-1.19-1.14-.78-1.83.12-.13.22-.23.32-.28l-.57-.33s-.04-.04,0-.06l.82-.48ZM41.38,298.58c.28.17.64.2,1.08.11l-1.31-.76c-.21.22-.16.42.15.6l.09.05ZM46.57,300.07c.23-.23.21-.43-.06-.58l-.19-.11c-.28-.16-.65-.19-1.1-.09l1.35.78Z" style="fill: #ffdf85; stroke-width: 0px;"/>
            </g>
            <g>
              <path d="M56.82,294.88v4.05c0,2.39-4.91,5.87-12.61,5.87s-12.61-3.47-12.61-5.87v-4.05h3.85c2.16-1.06,5.16-1.82,8.76-1.82s6.59.76,8.76,1.82h3.85Z" style="fill: url(#linear-gradient-34); stroke-width: 0px;"/>
              <path d="M56.82,294.88v.82c-.92,2.36-5.64,5.22-12.61,5.22s-11.68-2.85-12.61-5.22v-.82c0,2.39,4.91,5.87,12.61,5.87s12.61-3.48,12.61-5.87Z" style="fill: #ffdf85; stroke-width: 0px;"/>
              <path d="M56.82,294.88c0,2.39-4.91,5.87-12.61,5.87s-12.61-3.48-12.61-5.87,4.91-5.87,12.61-5.87,12.61,3.48,12.61,5.87Z" style="fill: url(#linear-gradient-35); stroke-width: 0px;"/>
              <path d="M44.22,298.99c-5.73,0-9.39-2.64-9.39-4.46s3.66-4.46,9.39-4.46,9.39,2.64,9.39,4.46-3.66,4.46-9.39,4.46Z" style="fill: #ffdf85; stroke-width: 0px;"/>
              <path d="M53.44,294.53c0,1.75-3.59,4.29-9.22,4.29s-9.22-2.54-9.22-4.29,3.59-4.29,9.22-4.29,9.22,2.54,9.22,4.29Z" style="fill: url(#linear-gradient-36); stroke-width: 0px;"/>
              <path d="M39.99,291.71s.06-.01.09,0l.54.31s.32-.06.88-.22c.72-.1,1.22-.12,1.51-.08.47.66.69,1.01.66,1.03-.92.02-1.44.07-1.58.15l1.53.89c.62-.21,1.38-.28,2.26-.22.56.07,1.12.27,1.68.59.93.54,1.17,1.16.71,1.87l-.27.25.94.55s.04.04.01.05l-.82.48s-.06.02-.1,0l-.97-.56c-.4.23-1.23.38-2.49.43l-.41-.02-.05-.03c-.39-.65-.55-.99-.5-1.02.95,0,1.65-.05,2.08-.19l-1.63-.94c-.41.13-.93.22-1.57.26-.78.02-1.53-.18-2.27-.61-.93-.54-1.19-1.14-.78-1.83.12-.13.22-.23.32-.28l-.57-.33s-.04-.04,0-.06l.82-.47ZM41.38,294c.28.16.64.2,1.08.11l-1.31-.76c-.21.22-.16.42.15.6l.09.05ZM46.57,295.49c.23-.23.21-.43-.06-.58l-.19-.11c-.28-.16-.65-.19-1.1-.09l1.35.78Z" style="fill: #ffdf85; stroke-width: 0px;"/>
            </g>
            <g>
              <path d="M56.82,290.3v4.05c0,2.39-4.91,5.87-12.61,5.87s-12.61-3.47-12.61-5.87v-4.05h3.85c2.16-1.05,5.16-1.81,8.76-1.81s6.59.76,8.76,1.81h3.85Z" style="fill: url(#linear-gradient-37); stroke-width: 0px;"/>
              <path d="M56.82,290.3v.82c-.92,2.36-5.64,5.22-12.61,5.22s-11.68-2.85-12.61-5.22v-.82c0,2.39,4.91,5.87,12.61,5.87s12.61-3.48,12.61-5.87Z" style="fill: #ffdf85; stroke-width: 0px;"/>
              <path d="M56.82,290.3c0,2.39-4.91,5.87-12.61,5.87s-12.61-3.48-12.61-5.87,4.91-5.87,12.61-5.87,12.61,3.48,12.61,5.87Z" style="fill: url(#linear-gradient-38); stroke-width: 0px;"/>
              <path d="M44.22,294.4c-5.73,0-9.39-2.64-9.39-4.46s3.66-4.46,9.39-4.46,9.39,2.64,9.39,4.46-3.66,4.46-9.39,4.46Z" style="fill: #ffdf85; stroke-width: 0px;"/>
              <path d="M53.44,289.94c0,1.75-3.59,4.29-9.22,4.29s-9.22-2.54-9.22-4.29,3.59-4.29,9.22-4.29,9.22,2.54,9.22,4.29Z" style="fill: url(#linear-gradient-39); stroke-width: 0px;"/>
              <path d="M39.99,287.12s.06-.01.09,0l.54.31s.32-.06.88-.22c.72-.1,1.22-.12,1.51-.08.47.66.69,1.01.66,1.03-.92.02-1.44.07-1.58.15l1.53.89c.62-.21,1.38-.28,2.26-.22.56.07,1.12.27,1.68.59.93.54,1.17,1.16.71,1.87l-.27.25.94.54s.04.04.01.05l-.82.47s-.06.02-.1,0l-.97-.56c-.4.23-1.23.38-2.49.43l-.41-.02-.05-.03c-.39-.65-.55-.99-.5-1.02.95,0,1.65-.05,2.08-.19l-1.63-.94c-.41.13-.93.22-1.57.26-.78.02-1.53-.18-2.27-.61-.93-.54-1.19-1.15-.78-1.83.12-.13.22-.23.32-.28l-.57-.33s-.04-.04,0-.06l.82-.47ZM41.38,289.42c.28.16.64.2,1.08.11l-1.31-.76c-.21.22-.16.42.15.6l.09.05ZM46.57,290.91c.23-.24.21-.43-.06-.58l-.19-.11c-.28-.16-.65-.19-1.1-.09l1.35.78Z" style="fill: #ffdf85; stroke-width: 0px;"/>
            </g>
            <g>
              <path d="M56.82,285.71v4.05c0,2.39-4.91,5.87-12.61,5.87s-12.61-3.47-12.61-5.87v-4.05h3.85c2.16-1.06,5.16-1.81,8.76-1.81s6.59.76,8.76,1.81h3.85Z" style="fill: url(#linear-gradient-40); stroke-width: 0px;"/>
              <path d="M56.82,285.71v.82c-.92,2.36-5.64,5.22-12.61,5.22s-11.68-2.85-12.61-5.22v-.82c0,2.39,4.91,5.87,12.61,5.87s12.61-3.48,12.61-5.87Z" style="fill: #ffdf85; stroke-width: 0px;"/>
              <path d="M56.82,285.71c0,2.39-4.91,5.87-12.61,5.87s-12.61-3.48-12.61-5.87,4.91-5.87,12.61-5.87,12.61,3.48,12.61,5.87Z" style="fill: url(#linear-gradient-41); stroke-width: 0px;"/>
              <path d="M44.22,289.82c-5.73,0-9.39-2.64-9.39-4.46s3.66-4.46,9.39-4.46,9.39,2.64,9.39,4.46-3.66,4.46-9.39,4.46Z" style="fill: #ffdf85; stroke-width: 0px;"/>
              <path d="M53.44,285.36c0,1.75-3.59,4.29-9.22,4.29s-9.22-2.54-9.22-4.29,3.59-4.29,9.22-4.29,9.22,2.54,9.22,4.29Z" style="fill: url(#linear-gradient-42); stroke-width: 0px;"/>
              <path d="M39.99,282.54s.06-.01.09,0l.54.31s.32-.06.88-.22c.72-.1,1.22-.12,1.51-.08.47.66.69,1.01.66,1.02-.92.02-1.44.07-1.58.15l1.53.89c.62-.21,1.38-.28,2.26-.22.56.07,1.12.27,1.68.59.93.54,1.17,1.16.71,1.87l-.27.25.94.54s.04.04.01.05l-.82.47s-.06.02-.1,0l-.97-.56c-.4.23-1.23.38-2.49.43l-.41-.02-.05-.03c-.39-.65-.55-.99-.5-1.02.95,0,1.65-.05,2.08-.19l-1.63-.94c-.41.13-.93.22-1.57.26-.78.02-1.53-.18-2.27-.61-.93-.54-1.19-1.14-.78-1.83.12-.13.22-.23.32-.28l-.57-.33s-.04-.04,0-.06l.82-.47ZM41.38,284.83c.28.16.64.2,1.08.11l-1.31-.76c-.21.22-.16.42.15.6l.09.05ZM46.57,286.32c.23-.23.21-.43-.06-.58l-.19-.11c-.28-.16-.65-.19-1.1-.09l1.35.78Z" style="fill: #ffdf85; stroke-width: 0px;"/>
            </g>
            <g>
              <path d="M56.82,281.13v4.05c0,2.39-4.91,5.87-12.61,5.87s-12.61-3.47-12.61-5.87v-4.05h3.85c2.16-1.05,5.16-1.81,8.76-1.81s6.59.76,8.76,1.81h3.85Z" style="fill: url(#linear-gradient-43); stroke-width: 0px;"/>
              <path d="M56.82,281.13v.82c-.92,2.36-5.64,5.22-12.61,5.22s-11.68-2.85-12.61-5.22v-.82c0,2.39,4.91,5.87,12.61,5.87s12.61-3.48,12.61-5.87Z" style="fill: #ffdf85; stroke-width: 0px;"/>
              <path d="M56.82,281.13c0,2.39-4.91,5.87-12.61,5.87s-12.61-3.48-12.61-5.87,4.91-5.87,12.61-5.87,12.61,3.48,12.61,5.87Z" style="fill: url(#linear-gradient-44); stroke-width: 0px;"/>
              <path d="M44.22,285.23c-5.73,0-9.39-2.64-9.39-4.46s3.66-4.46,9.39-4.46,9.39,2.64,9.39,4.46-3.66,4.46-9.39,4.46Z" style="fill: #ffdf85; stroke-width: 0px;"/>
              <path d="M53.44,280.77c0,1.75-3.59,4.29-9.22,4.29s-9.22-2.54-9.22-4.29,3.59-4.29,9.22-4.29,9.22,2.54,9.22,4.29Z" style="fill: url(#linear-gradient-45); stroke-width: 0px;"/>
              <path d="M39.99,277.95s.06-.01.09,0l.54.31s.32-.06.88-.22c.72-.1,1.22-.12,1.51-.08.47.66.69,1.01.66,1.02-.92.02-1.44.07-1.58.15l1.53.89c.62-.21,1.38-.28,2.26-.22.56.07,1.12.26,1.68.59.93.54,1.17,1.16.71,1.87l-.27.26.94.54s.04.04.01.05l-.82.47s-.06.02-.1,0l-.97-.56c-.4.23-1.23.38-2.49.43l-.41-.02-.05-.03c-.39-.65-.55-.99-.5-1.02.95,0,1.65-.05,2.08-.19l-1.63-.94c-.41.13-.93.22-1.57.26-.78.02-1.53-.18-2.27-.61-.93-.54-1.19-1.14-.78-1.83.12-.13.22-.23.32-.28l-.57-.33s-.04-.04,0-.06l.82-.47ZM41.38,280.25c.28.16.64.2,1.08.11l-1.31-.76c-.21.22-.16.42.15.6l.09.05ZM46.57,281.74c.23-.24.21-.43-.06-.58l-.19-.11c-.28-.16-.65-.19-1.1-.09l1.35.78Z" style="fill: #ffdf85; stroke-width: 0px;"/>
            </g>
            <g>
              <path d="M56.82,276.54v4.05c0,2.39-4.91,5.87-12.61,5.87s-12.61-3.47-12.61-5.87v-4.05h3.85c2.16-1.06,5.16-1.82,8.76-1.82s6.59.76,8.76,1.82h3.85Z" style="fill: url(#linear-gradient-46); stroke-width: 0px;"/>
              <path d="M56.82,276.54v.82c-.92,2.36-5.64,5.22-12.61,5.22s-11.68-2.85-12.61-5.22v-.82c0,2.39,4.91,5.87,12.61,5.87s12.61-3.48,12.61-5.87Z" style="fill: #ffdf85; stroke-width: 0px;"/>
              <path d="M56.82,276.54c0,2.39-4.91,5.87-12.61,5.87s-12.61-3.48-12.61-5.87,4.91-5.87,12.61-5.87,12.61,3.47,12.61,5.87Z" style="fill: url(#linear-gradient-47); stroke-width: 0px;"/>
              <path d="M44.22,280.65c-5.73,0-9.39-2.64-9.39-4.46s3.66-4.46,9.39-4.46,9.39,2.64,9.39,4.46-3.66,4.46-9.39,4.46Z" style="fill: #ffdf85; stroke-width: 0px;"/>
              <path d="M53.44,276.19c0,1.75-3.59,4.29-9.22,4.29s-9.22-2.54-9.22-4.29,3.59-4.29,9.22-4.29,9.22,2.54,9.22,4.29Z" style="fill: url(#linear-gradient-48); stroke-width: 0px;"/>
              <path d="M39.99,273.37s.06-.01.09,0l.54.31s.32-.06.88-.22c.72-.1,1.22-.12,1.51-.08.47.66.69,1.01.66,1.02-.92.02-1.44.07-1.58.15l1.53.89c.62-.21,1.38-.28,2.26-.21.56.07,1.12.26,1.68.59.93.54,1.17,1.16.71,1.87l-.27.26.94.54s.04.04.01.06l-.82.47s-.06.02-.1,0l-.97-.56c-.4.23-1.23.38-2.49.43l-.41-.02-.05-.03c-.39-.65-.55-.99-.5-1.02.95,0,1.65-.05,2.08-.19l-1.63-.94c-.41.13-.93.22-1.57.26-.78.02-1.53-.18-2.27-.61-.93-.54-1.19-1.14-.78-1.83.12-.13.22-.23.32-.28l-.57-.33s-.04-.04,0-.06l.82-.47ZM41.38,275.66c.28.16.64.2,1.08.11l-1.31-.76c-.21.22-.16.42.15.6l.09.05ZM46.57,277.15c.23-.23.21-.43-.06-.58l-.19-.11c-.28-.16-.65-.19-1.1-.09l1.35.78Z" style="fill: #ffdf85; stroke-width: 0px;"/>
            </g>
            <g>
              <path d="M56.82,271.96v4.05c0,2.39-4.91,5.87-12.61,5.87s-12.61-3.47-12.61-5.87v-4.05h3.85c2.16-1.06,5.16-1.82,8.76-1.82s6.59.76,8.76,1.82h3.85Z" style="fill: url(#linear-gradient-49); stroke-width: 0px;"/>
              <path d="M56.82,271.96v.82c-.92,2.36-5.64,5.22-12.61,5.22s-11.68-2.85-12.61-5.22v-.82c0,2.39,4.91,5.87,12.61,5.87s12.61-3.48,12.61-5.87Z" style="fill: #ffdf85; stroke-width: 0px;"/>
              <path d="M56.82,271.96c0,2.39-4.91,5.87-12.61,5.87s-12.61-3.48-12.61-5.87,4.91-5.87,12.61-5.87,12.61,3.48,12.61,5.87Z" style="fill: url(#linear-gradient-50); stroke-width: 0px;"/>
              <path d="M44.22,276.06c-5.73,0-9.39-2.64-9.39-4.46s3.66-4.46,9.39-4.46,9.39,2.64,9.39,4.46-3.66,4.46-9.39,4.46Z" style="fill: #ffdf85; stroke-width: 0px;"/>
              <path d="M53.44,271.61c0,1.75-3.59,4.29-9.22,4.29s-9.22-2.54-9.22-4.29,3.59-4.29,9.22-4.29,9.22,2.54,9.22,4.29Z" style="fill: url(#linear-gradient-51); stroke-width: 0px;"/>
              <path d="M39.99,268.78s.06-.01.09,0l.54.31s.32-.06.88-.22c.72-.1,1.22-.12,1.51-.08.47.66.69,1,.66,1.02-.92.02-1.44.07-1.58.15l1.53.89c.62-.21,1.38-.28,2.26-.21.56.07,1.12.26,1.68.59.93.54,1.17,1.16.71,1.87l-.27.25.94.54s.04.04.01.06l-.82.47s-.06.02-.1,0l-.97-.56c-.4.23-1.23.38-2.49.43l-.41-.02-.05-.03c-.39-.65-.55-.99-.5-1.02.95,0,1.65-.05,2.08-.19l-1.63-.94c-.41.13-.93.22-1.57.26-.78.02-1.53-.18-2.27-.61-.93-.54-1.19-1.14-.78-1.83.12-.13.22-.23.32-.28l-.57-.33s-.04-.04,0-.06l.82-.48ZM41.38,271.08c.28.16.64.2,1.08.11l-1.31-.76c-.21.22-.16.42.15.6l.09.05ZM46.57,272.57c.23-.23.21-.43-.06-.58l-.19-.11c-.28-.16-.65-.19-1.1-.09l1.35.78Z" style="fill: #ffdf85; stroke-width: 0px;"/>
            </g>
            <g>
              <path d="M56.82,267.38v4.05c0,2.39-4.91,5.87-12.61,5.87s-12.61-3.47-12.61-5.87v-4.05h3.85c2.16-1.06,5.16-1.82,8.76-1.82s6.59.76,8.76,1.82h3.85Z" style="fill: url(#linear-gradient-52); stroke-width: 0px;"/>
              <path d="M56.82,267.38v.82c-.92,2.36-5.64,5.22-12.61,5.22s-11.68-2.85-12.61-5.22v-.82c0,2.39,4.91,5.87,12.61,5.87s12.61-3.48,12.61-5.87Z" style="fill: #ffdf85; stroke-width: 0px;"/>
              <path d="M56.82,267.38c0,2.39-4.91,5.87-12.61,5.87s-12.61-3.48-12.61-5.87,4.91-5.87,12.61-5.87,12.61,3.48,12.61,5.87Z" style="fill: url(#linear-gradient-53); stroke-width: 0px;"/>
              <path d="M44.22,271.48c-5.73,0-9.39-2.64-9.39-4.46s3.66-4.46,9.39-4.46,9.39,2.64,9.39,4.46-3.66,4.46-9.39,4.46Z" style="fill: #ffdf85; stroke-width: 0px;"/>
              <path d="M53.44,267.02c0,1.75-3.59,4.29-9.22,4.29s-9.22-2.54-9.22-4.29,3.59-4.29,9.22-4.29,9.22,2.54,9.22,4.29Z" style="fill: url(#linear-gradient-54); stroke-width: 0px;"/>
              <path d="M39.99,264.2s.06-.01.09,0l.54.31s.32-.06.88-.22c.72-.1,1.22-.12,1.51-.08.47.66.69,1.01.66,1.03-.92.02-1.44.07-1.58.15l1.53.89c.62-.21,1.38-.28,2.26-.22.56.07,1.12.27,1.68.59.93.54,1.17,1.16.71,1.87l-.27.25.94.54s.04.04.01.05l-.82.47s-.06.02-.1,0l-.97-.56c-.4.23-1.23.38-2.49.43l-.41-.02-.05-.03c-.39-.65-.55-.99-.5-1.02.95,0,1.65-.05,2.08-.19l-1.63-.94c-.41.13-.93.22-1.57.26-.78.02-1.53-.18-2.27-.61-.93-.54-1.19-1.14-.78-1.83.12-.13.22-.23.32-.28l-.57-.33s-.04-.04,0-.06l.82-.47ZM41.38,266.49c.28.16.64.2,1.08.11l-1.31-.76c-.21.22-.16.42.15.6l.09.05ZM46.57,267.98c.23-.23.21-.43-.06-.58l-.19-.11c-.28-.16-.65-.19-1.1-.09l1.35.78Z" style="fill: #ffdf85; stroke-width: 0px;"/>
            </g>
          </g>
          <g>
            <rect x="68.45" y="323.4" width="29.78" height="9.92" style="fill: url(#New_Gradient_Swatch_1-3); mix-blend-mode: multiply; stroke-width: 0px;"/>
            <g>
              <path d="M81.57,323.4v4.05c0,2.39-4.91,5.87-12.61,5.87s-12.61-3.47-12.61-5.87v-4.05h3.85c2.16-1.05,5.16-1.81,8.76-1.81s6.59.76,8.76,1.81h3.85Z" style="fill: url(#linear-gradient-55); stroke-width: 0px;"/>
              <path d="M81.57,323.4v.82c-.93,2.36-5.64,5.22-12.61,5.22s-11.68-2.85-12.61-5.22v-.82c0,2.39,4.91,5.87,12.61,5.87s12.61-3.48,12.61-5.87Z" style="fill: #ffdf85; stroke-width: 0px;"/>
              <path d="M81.57,323.4c0,2.39-4.91,5.87-12.61,5.87s-12.61-3.48-12.61-5.87,4.91-5.87,12.61-5.87,12.61,3.48,12.61,5.87Z" style="fill: url(#linear-gradient-56); stroke-width: 0px;"/>
              <path d="M68.96,327.51c-5.73,0-9.39-2.64-9.39-4.46s3.66-4.46,9.39-4.46,9.39,2.64,9.39,4.46-3.66,4.46-9.39,4.46Z" style="fill: #ffdf85; stroke-width: 0px;"/>
              <path d="M78.18,323.05c0,1.75-3.59,4.29-9.22,4.29s-9.22-2.54-9.22-4.29,3.59-4.29,9.22-4.29,9.22,2.54,9.22,4.29Z" style="fill: url(#linear-gradient-57); stroke-width: 0px;"/>
              <path d="M64.73,320.23s.06-.01.09,0l.54.31s.32-.06.89-.22c.72-.1,1.22-.12,1.51-.08.47.66.69,1.01.66,1.02-.92.02-1.44.07-1.58.15l1.53.89c.62-.21,1.38-.28,2.26-.22.56.07,1.12.27,1.68.59.93.54,1.17,1.16.71,1.87l-.26.25.94.54s.04.04.01.06l-.82.47s-.06.02-.1,0l-.98-.56c-.4.23-1.23.38-2.49.43l-.41-.02-.06-.03c-.39-.65-.54-.99-.5-1.02.95,0,1.65-.05,2.08-.19l-1.63-.94c-.41.13-.93.22-1.57.26-.78.02-1.53-.18-2.27-.61-.93-.54-1.19-1.14-.78-1.82.12-.13.22-.23.32-.28l-.57-.33s-.04-.04,0-.06l.82-.47ZM66.12,322.52c.28.16.64.2,1.08.11l-1.32-.76c-.21.22-.16.42.15.6l.09.05ZM71.32,324.01c.23-.24.21-.43-.06-.58l-.19-.11c-.28-.16-.65-.19-1.1-.09l1.35.78Z" style="fill: #ffdf85; stroke-width: 0px;"/>
            </g>
            <g>
              <path d="M81.57,318.82v4.05c0,2.39-4.91,5.87-12.61,5.87s-12.61-3.47-12.61-5.87v-4.05h3.85c2.16-1.06,5.16-1.82,8.76-1.82s6.59.76,8.76,1.82h3.85Z" style="fill: url(#linear-gradient-58); stroke-width: 0px;"/>
              <path d="M81.57,318.82v.82c-.93,2.36-5.64,5.22-12.61,5.22s-11.68-2.85-12.61-5.22v-.82c0,2.39,4.91,5.87,12.61,5.87s12.61-3.47,12.61-5.87Z" style="fill: #ffdf85; stroke-width: 0px;"/>
              <path d="M81.57,318.82c0,2.39-4.91,5.87-12.61,5.87s-12.61-3.47-12.61-5.87,4.91-5.87,12.61-5.87,12.61,3.47,12.61,5.87Z" style="fill: url(#linear-gradient-59); stroke-width: 0px;"/>
              <path d="M68.96,322.92c-5.73,0-9.39-2.64-9.39-4.46s3.66-4.46,9.39-4.46,9.39,2.64,9.39,4.46-3.66,4.46-9.39,4.46Z" style="fill: #ffdf85; stroke-width: 0px;"/>
              <path d="M78.18,318.46c0,1.75-3.59,4.29-9.22,4.29s-9.22-2.54-9.22-4.29,3.59-4.29,9.22-4.29,9.22,2.54,9.22,4.29Z" style="fill: url(#linear-gradient-60); stroke-width: 0px;"/>
              <path d="M64.73,315.64s.06-.01.09,0l.54.31s.32-.06.89-.22c.72-.1,1.22-.12,1.51-.08.47.66.69,1,.66,1.02-.92.02-1.44.07-1.58.15l1.53.88c.62-.21,1.38-.28,2.26-.21.56.07,1.12.27,1.68.59.93.54,1.17,1.16.71,1.87l-.26.26.94.54s.04.04.01.06l-.82.47s-.06.02-.1,0l-.98-.56c-.4.23-1.23.38-2.49.43l-.41-.02-.06-.03c-.39-.65-.54-.99-.5-1.02.95,0,1.65-.05,2.08-.19l-1.63-.94c-.41.13-.93.22-1.57.26-.78.02-1.53-.18-2.27-.61-.93-.54-1.19-1.14-.78-1.83.12-.13.22-.23.32-.28l-.57-.33s-.04-.04,0-.06l.82-.47ZM66.12,317.94c.28.16.64.2,1.08.11l-1.32-.76c-.21.22-.16.42.15.6l.09.05ZM71.32,319.43c.23-.23.21-.43-.06-.58l-.19-.11c-.28-.16-.65-.19-1.1-.09l1.35.78Z" style="fill: #ffdf85; stroke-width: 0px;"/>
            </g>
            <g>
              <path d="M81.57,314.23v4.05c0,2.39-4.91,5.87-12.61,5.87s-12.61-3.47-12.61-5.87v-4.05h3.85c2.16-1.06,5.16-1.82,8.76-1.82s6.59.76,8.76,1.82h3.85Z" style="fill: url(#linear-gradient-61); stroke-width: 0px;"/>
              <path d="M81.57,314.23v.82c-.93,2.36-5.64,5.22-12.61,5.22s-11.68-2.85-12.61-5.22v-.82c0,2.39,4.91,5.87,12.61,5.87s12.61-3.48,12.61-5.87Z" style="fill: #ffdf85; stroke-width: 0px;"/>
              <path d="M81.57,314.23c0,2.39-4.91,5.87-12.61,5.87s-12.61-3.48-12.61-5.87,4.91-5.87,12.61-5.87,12.61,3.47,12.61,5.87Z" style="fill: url(#linear-gradient-62); stroke-width: 0px;"/>
              <path d="M68.96,318.34c-5.73,0-9.39-2.64-9.39-4.46s3.66-4.46,9.39-4.46,9.39,2.64,9.39,4.46-3.66,4.46-9.39,4.46Z" style="fill: #ffdf85; stroke-width: 0px;"/>
              <path d="M78.18,313.88c0,1.75-3.59,4.29-9.22,4.29s-9.22-2.54-9.22-4.29,3.59-4.29,9.22-4.29,9.22,2.54,9.22,4.29Z" style="fill: url(#linear-gradient-63); stroke-width: 0px;"/>
              <path d="M64.73,311.06s.06-.01.09,0l.54.31s.32-.06.89-.22c.72-.1,1.22-.12,1.51-.08.47.66.69,1,.66,1.02-.92.02-1.44.07-1.58.15l1.53.89c.62-.21,1.38-.28,2.26-.21.56.07,1.12.26,1.68.59.93.54,1.17,1.16.71,1.87l-.26.26.94.54s.04.04.01.05l-.82.47s-.06.02-.1,0l-.98-.56c-.4.23-1.23.38-2.49.43l-.41-.02-.06-.03c-.39-.65-.54-.99-.5-1.02.95,0,1.65-.05,2.08-.19l-1.63-.94c-.41.13-.93.22-1.57.26-.78.02-1.53-.18-2.27-.61-.93-.54-1.19-1.14-.78-1.83.12-.13.22-.23.32-.28l-.57-.33s-.04-.04,0-.06l.82-.47ZM66.12,313.35c.28.17.64.2,1.08.11l-1.32-.76c-.21.22-.16.42.15.6l.09.05ZM71.32,314.84c.23-.23.21-.43-.06-.58l-.19-.11c-.28-.16-.65-.19-1.1-.09l1.35.78Z" style="fill: #ffdf85; stroke-width: 0px;"/>
            </g>
            <g>
              <path d="M81.57,309.65v4.05c0,2.39-4.91,5.87-12.61,5.87s-12.61-3.47-12.61-5.87v-4.05h3.85c2.16-1.06,5.16-1.82,8.76-1.82s6.59.76,8.76,1.82h3.85Z" style="fill: url(#linear-gradient-64); stroke-width: 0px;"/>
              <path d="M81.57,309.65v.82c-.93,2.36-5.64,5.22-12.61,5.22s-11.68-2.85-12.61-5.22v-.82c0,2.39,4.91,5.87,12.61,5.87s12.61-3.48,12.61-5.87Z" style="fill: #ffdf85; stroke-width: 0px;"/>
              <path d="M81.57,309.65c0,2.39-4.91,5.87-12.61,5.87s-12.61-3.48-12.61-5.87,4.91-5.87,12.61-5.87,12.61,3.48,12.61,5.87Z" style="fill: url(#linear-gradient-65); stroke-width: 0px;"/>
              <path d="M68.96,313.75c-5.73,0-9.39-2.64-9.39-4.46s3.66-4.46,9.39-4.46,9.39,2.64,9.39,4.46-3.66,4.46-9.39,4.46Z" style="fill: #ffdf85; stroke-width: 0px;"/>
              <path d="M78.18,309.3c0,1.75-3.59,4.29-9.22,4.29s-9.22-2.54-9.22-4.29,3.59-4.29,9.22-4.29,9.22,2.54,9.22,4.29Z" style="fill: url(#linear-gradient-66); stroke-width: 0px;"/>
              <path d="M64.73,306.47s.06-.01.09,0l.54.31s.32-.06.89-.22c.72-.1,1.22-.12,1.51-.08.47.66.69,1.01.66,1.03-.92.02-1.44.07-1.58.15l1.53.89c.62-.21,1.38-.28,2.26-.22.56.07,1.12.27,1.68.59.93.54,1.17,1.16.71,1.87l-.26.25.94.54s.04.04.01.05l-.82.48s-.06.02-.1,0l-.98-.56c-.4.23-1.23.38-2.49.43l-.41-.02-.06-.03c-.39-.65-.54-.99-.5-1.02.95,0,1.65-.05,2.08-.19l-1.63-.94c-.41.13-.93.22-1.57.26-.78.02-1.53-.18-2.27-.61-.93-.54-1.19-1.14-.78-1.83.12-.13.22-.23.32-.28l-.57-.33s-.04-.04,0-.06l.82-.47ZM66.12,308.77c.28.16.64.2,1.08.11l-1.32-.76c-.21.22-.16.42.15.6l.09.05ZM71.32,310.26c.23-.23.21-.43-.06-.58l-.19-.11c-.28-.16-.65-.19-1.1-.09l1.35.78Z" style="fill: #ffdf85; stroke-width: 0px;"/>
            </g>
            <g>
              <path d="M81.57,305.06v4.05c0,2.39-4.91,5.87-12.61,5.87s-12.61-3.47-12.61-5.87v-4.05h3.85c2.16-1.05,5.16-1.81,8.76-1.81s6.59.76,8.76,1.81h3.85Z" style="fill: url(#linear-gradient-67); stroke-width: 0px;"/>
              <path d="M81.57,305.06v.82c-.93,2.36-5.64,5.22-12.61,5.22s-11.68-2.85-12.61-5.22v-.82c0,2.39,4.91,5.87,12.61,5.87s12.61-3.48,12.61-5.87Z" style="fill: #ffdf85; stroke-width: 0px;"/>
              <path d="M81.57,305.06c0,2.39-4.91,5.87-12.61,5.87s-12.61-3.48-12.61-5.87,4.91-5.87,12.61-5.87,12.61,3.48,12.61,5.87Z" style="fill: url(#linear-gradient-68); stroke-width: 0px;"/>
              <path d="M68.96,309.17c-5.73,0-9.39-2.64-9.39-4.46s3.66-4.46,9.39-4.46,9.39,2.64,9.39,4.46-3.66,4.46-9.39,4.46Z" style="fill: #ffdf85; stroke-width: 0px;"/>
              <path d="M78.18,304.71c0,1.75-3.59,4.29-9.22,4.29s-9.22-2.54-9.22-4.29,3.59-4.29,9.22-4.29,9.22,2.54,9.22,4.29Z" style="fill: url(#linear-gradient-69); stroke-width: 0px;"/>
              <path d="M64.73,301.89s.06-.01.09,0l.54.31s.32-.06.89-.22c.72-.1,1.22-.12,1.51-.08.47.66.69,1.01.66,1.03-.92.02-1.44.07-1.58.15l1.53.89c.62-.21,1.38-.28,2.26-.22.56.07,1.12.27,1.68.59.93.54,1.17,1.16.71,1.87l-.26.25.94.55s.04.04.01.05l-.82.47s-.06.02-.1,0l-.98-.56c-.4.23-1.23.38-2.49.43l-.41-.02-.06-.03c-.39-.65-.54-.99-.5-1.02.95,0,1.65-.05,2.08-.19l-1.63-.94c-.41.13-.93.22-1.57.26-.78.02-1.53-.18-2.27-.61-.93-.54-1.19-1.15-.78-1.83.12-.13.22-.23.32-.28l-.57-.33s-.04-.04,0-.06l.82-.47ZM66.12,304.18c.28.16.64.2,1.08.11l-1.32-.76c-.21.22-.16.42.15.6l.09.05ZM71.32,305.67c.23-.24.21-.43-.06-.58l-.19-.11c-.28-.16-.65-.19-1.1-.09l1.35.78Z" style="fill: #ffdf85; stroke-width: 0px;"/>
            </g>
            <g>
              <path d="M81.57,300.48v4.05c0,2.39-4.91,5.87-12.61,5.87s-12.61-3.47-12.61-5.87v-4.05h3.85c2.16-1.06,5.16-1.81,8.76-1.81s6.59.76,8.76,1.81h3.85Z" style="fill: url(#linear-gradient-70); stroke-width: 0px;"/>
              <path d="M81.57,300.48v.82c-.93,2.36-5.64,5.22-12.61,5.22s-11.68-2.85-12.61-5.22v-.82c0,2.39,4.91,5.87,12.61,5.87s12.61-3.48,12.61-5.87Z" style="fill: #ffdf85; stroke-width: 0px;"/>
              <path d="M81.57,300.48c0,2.39-4.91,5.87-12.61,5.87s-12.61-3.48-12.61-5.87,4.91-5.87,12.61-5.87,12.61,3.48,12.61,5.87Z" style="fill: url(#linear-gradient-71); stroke-width: 0px;"/>
              <path d="M68.96,304.58c-5.73,0-9.39-2.64-9.39-4.46s3.66-4.46,9.39-4.46,9.39,2.64,9.39,4.46-3.66,4.46-9.39,4.46Z" style="fill: #ffdf85; stroke-width: 0px;"/>
              <path d="M78.18,300.13c0,1.75-3.59,4.29-9.22,4.29s-9.22-2.54-9.22-4.29,3.59-4.29,9.22-4.29,9.22,2.54,9.22,4.29Z" style="fill: url(#linear-gradient-72); stroke-width: 0px;"/>
              <path d="M64.73,297.31s.06-.01.09,0l.54.31s.32-.06.89-.22c.72-.1,1.22-.12,1.51-.08.47.66.69,1.01.66,1.02-.92.02-1.44.07-1.58.15l1.53.89c.62-.21,1.38-.28,2.26-.22.56.07,1.12.27,1.68.59.93.54,1.17,1.16.71,1.87l-.26.25.94.54s.04.04.01.05l-.82.48s-.06.02-.1,0l-.98-.56c-.4.23-1.23.38-2.49.43l-.41-.02-.06-.03c-.39-.65-.54-.99-.5-1.02.95,0,1.65-.05,2.08-.19l-1.63-.94c-.41.13-.93.22-1.57.26-.78.02-1.53-.18-2.27-.61-.93-.54-1.19-1.14-.78-1.83.12-.13.22-.23.32-.28l-.57-.33s-.04-.04,0-.06l.82-.47ZM66.12,299.6c.28.16.64.2,1.08.11l-1.32-.76c-.21.22-.16.42.15.6l.09.05ZM71.32,301.09c.23-.24.21-.43-.06-.58l-.19-.11c-.28-.16-.65-.19-1.1-.09l1.35.78Z" style="fill: #ffdf85; stroke-width: 0px;"/>
            </g>
            <g>
              <path d="M81.57,295.9v4.05c0,2.39-4.91,5.87-12.61,5.87s-12.61-3.47-12.61-5.87v-4.05h3.85c2.16-1.05,5.16-1.81,8.76-1.81s6.59.76,8.76,1.81h3.85Z" style="fill: url(#linear-gradient-73); stroke-width: 0px;"/>
              <path d="M81.57,295.9v.82c-.93,2.36-5.64,5.22-12.61,5.22s-11.68-2.85-12.61-5.22v-.82c0,2.39,4.91,5.87,12.61,5.87s12.61-3.48,12.61-5.87Z" style="fill: #ffdf85; stroke-width: 0px;"/>
              <path d="M81.57,295.9c0,2.39-4.91,5.87-12.61,5.87s-12.61-3.48-12.61-5.87,4.91-5.87,12.61-5.87,12.61,3.48,12.61,5.87Z" style="fill: url(#linear-gradient-74); stroke-width: 0px;"/>
              <path d="M68.96,300c-5.73,0-9.39-2.64-9.39-4.46s3.66-4.46,9.39-4.46,9.39,2.64,9.39,4.46-3.66,4.46-9.39,4.46Z" style="fill: #ffdf85; stroke-width: 0px;"/>
              <path d="M78.18,295.54c0,1.75-3.59,4.29-9.22,4.29s-9.22-2.54-9.22-4.29,3.59-4.29,9.22-4.29,9.22,2.54,9.22,4.29Z" style="fill: url(#linear-gradient-75); stroke-width: 0px;"/>
              <path d="M64.73,292.72s.06-.01.09,0l.54.31s.32-.06.89-.22c.72-.1,1.22-.12,1.51-.08.47.66.69,1.01.66,1.02-.92.02-1.44.07-1.58.15l1.53.89c.62-.21,1.38-.28,2.26-.22.56.07,1.12.27,1.68.59.93.54,1.17,1.16.71,1.87l-.26.26.94.54s.04.04.01.06l-.82.47s-.06.02-.1,0l-.98-.56c-.4.23-1.23.38-2.49.43l-.41-.02-.06-.03c-.39-.65-.54-.99-.5-1.02.95,0,1.65-.05,2.08-.19l-1.63-.94c-.41.13-.93.22-1.57.26-.78.02-1.53-.18-2.27-.61-.93-.54-1.19-1.14-.78-1.83.12-.13.22-.23.32-.28l-.57-.33s-.04-.04,0-.06l.82-.48ZM66.12,295.02c.28.16.64.2,1.08.11l-1.32-.76c-.21.22-.16.42.15.6l.09.05ZM71.32,296.51c.23-.24.21-.43-.06-.58l-.19-.11c-.28-.16-.65-.19-1.1-.09l1.35.78Z" style="fill: #ffdf85; stroke-width: 0px;"/>
            </g>
            <g>
              <path d="M81.57,291.31v4.05c0,2.39-4.91,5.87-12.61,5.87s-12.61-3.47-12.61-5.87v-4.05h3.85c2.16-1.06,5.16-1.82,8.76-1.82s6.59.76,8.76,1.82h3.85Z" style="fill: url(#linear-gradient-76); stroke-width: 0px;"/>
              <path d="M81.57,291.31v.82c-.93,2.36-5.64,5.22-12.61,5.22s-11.68-2.85-12.61-5.22v-.82c0,2.39,4.91,5.87,12.61,5.87s12.61-3.47,12.61-5.87Z" style="fill: #ffdf85; stroke-width: 0px;"/>
              <path d="M81.57,291.31c0,2.39-4.91,5.87-12.61,5.87s-12.61-3.47-12.61-5.87,4.91-5.87,12.61-5.87,12.61,3.47,12.61,5.87Z" style="fill: url(#linear-gradient-77); stroke-width: 0px;"/>
              <path d="M68.96,295.42c-5.73,0-9.39-2.64-9.39-4.46s3.66-4.46,9.39-4.46,9.39,2.64,9.39,4.46-3.66,4.46-9.39,4.46Z" style="fill: #ffdf85; stroke-width: 0px;"/>
              <path d="M78.18,290.96c0,1.75-3.59,4.29-9.22,4.29s-9.22-2.54-9.22-4.29,3.59-4.29,9.22-4.29,9.22,2.54,9.22,4.29Z" style="fill: url(#linear-gradient-78); stroke-width: 0px;"/>
              <path d="M64.73,288.14s.06-.01.09,0l.54.31s.32-.06.89-.22c.72-.1,1.22-.12,1.51-.08.47.66.69,1.01.66,1.02-.92.02-1.44.07-1.58.15l1.53.89c.62-.21,1.38-.28,2.26-.22.56.07,1.12.26,1.68.59.93.54,1.17,1.16.71,1.87l-.26.26.94.54s.04.04.01.06l-.82.47s-.06.02-.1,0l-.98-.56c-.4.23-1.23.38-2.49.43l-.41-.02-.06-.03c-.39-.65-.54-.99-.5-1.02.95,0,1.65-.05,2.08-.19l-1.63-.94c-.41.13-.93.22-1.57.26-.78.02-1.53-.18-2.27-.61-.93-.54-1.19-1.14-.78-1.83.12-.13.22-.23.32-.28l-.57-.33s-.04-.04,0-.06l.82-.47ZM66.12,290.43c.28.16.64.2,1.08.11l-1.32-.76c-.21.22-.16.42.15.6l.09.05ZM71.32,291.92c.23-.23.21-.43-.06-.58l-.19-.11c-.28-.16-.65-.19-1.1-.09l1.35.78Z" style="fill: #ffdf85; stroke-width: 0px;"/>
            </g>
            <g>
              <path d="M81.57,286.73v4.05c0,2.39-4.91,5.87-12.61,5.87s-12.61-3.47-12.61-5.87v-4.05h3.85c2.16-1.06,5.16-1.82,8.76-1.82s6.59.76,8.76,1.82h3.85Z" style="fill: url(#linear-gradient-79); stroke-width: 0px;"/>
              <path d="M81.57,286.73v.82c-.93,2.36-5.64,5.22-12.61,5.22s-11.68-2.85-12.61-5.22v-.82c0,2.39,4.91,5.87,12.61,5.87s12.61-3.48,12.61-5.87Z" style="fill: #ffdf85; stroke-width: 0px;"/>
              <path d="M81.57,286.73c0,2.39-4.91,5.87-12.61,5.87s-12.61-3.48-12.61-5.87,4.91-5.87,12.61-5.87,12.61,3.48,12.61,5.87Z" style="fill: url(#linear-gradient-80); stroke-width: 0px;"/>
              <path d="M68.96,290.83c-5.73,0-9.39-2.64-9.39-4.46s3.66-4.46,9.39-4.46,9.39,2.64,9.39,4.46-3.66,4.46-9.39,4.46Z" style="fill: #ffdf85; stroke-width: 0px;"/>
              <path d="M78.18,286.37c0,1.75-3.59,4.29-9.22,4.29s-9.22-2.54-9.22-4.29,3.59-4.29,9.22-4.29,9.22,2.54,9.22,4.29Z" style="fill: url(#linear-gradient-81); stroke-width: 0px;"/>
              <path d="M64.73,283.55s.06-.01.09,0l.54.31s.32-.06.89-.22c.72-.1,1.22-.12,1.51-.08.47.66.69,1,.66,1.02-.92.02-1.44.07-1.58.15l1.53.89c.62-.21,1.38-.28,2.26-.21.56.07,1.12.27,1.68.59.93.54,1.17,1.16.71,1.87l-.26.26.94.54s.04.04.01.05l-.82.48s-.06.02-.1,0l-.98-.56c-.4.23-1.23.38-2.49.43l-.41-.02-.06-.03c-.39-.65-.54-.99-.5-1.02.95,0,1.65-.05,2.08-.19l-1.63-.94c-.41.13-.93.22-1.57.26-.78.02-1.53-.18-2.27-.61-.93-.54-1.19-1.14-.78-1.83.12-.13.22-.23.32-.28l-.57-.33s-.04-.04,0-.06l.82-.48ZM66.12,285.85c.28.16.64.2,1.08.11l-1.32-.76c-.21.22-.16.42.15.6l.09.05ZM71.32,287.34c.23-.23.21-.43-.06-.58l-.19-.11c-.28-.16-.65-.19-1.1-.09l1.35.78Z" style="fill: #ffdf85; stroke-width: 0px;"/>
            </g>
            <g>
              <path d="M81.57,282.14v4.05c0,2.39-4.91,5.87-12.61,5.87s-12.61-3.47-12.61-5.87v-4.05h3.85c2.16-1.06,5.16-1.82,8.76-1.82s6.59.76,8.76,1.82h3.85Z" style="fill: url(#linear-gradient-82); stroke-width: 0px;"/>
              <path d="M81.57,282.14v.82c-.93,2.36-5.64,5.22-12.61,5.22s-11.68-2.85-12.61-5.22v-.82c0,2.39,4.91,5.87,12.61,5.87s12.61-3.48,12.61-5.87Z" style="fill: #ffdf85; stroke-width: 0px;"/>
              <path d="M81.57,282.14c0,2.39-4.91,5.87-12.61,5.87s-12.61-3.48-12.61-5.87,4.91-5.87,12.61-5.87,12.61,3.48,12.61,5.87Z" style="fill: url(#linear-gradient-83); stroke-width: 0px;"/>
              <path d="M68.96,286.25c-5.73,0-9.39-2.64-9.39-4.46s3.66-4.46,9.39-4.46,9.39,2.64,9.39,4.46-3.66,4.46-9.39,4.46Z" style="fill: #ffdf85; stroke-width: 0px;"/>
              <path d="M78.18,281.79c0,1.75-3.59,4.29-9.22,4.29s-9.22-2.54-9.22-4.29,3.59-4.29,9.22-4.29,9.22,2.54,9.22,4.29Z" style="fill: url(#linear-gradient-84); stroke-width: 0px;"/>
              <path d="M64.73,278.97s.06-.01.09,0l.54.31s.32-.06.89-.22c.72-.1,1.22-.12,1.51-.08.47.66.69,1.01.66,1.03-.92.02-1.44.07-1.58.15l1.53.89c.62-.21,1.38-.28,2.26-.22.56.07,1.12.27,1.68.59.93.54,1.17,1.16.71,1.87l-.26.25.94.54s.04.04.01.05l-.82.47s-.06.02-.1,0l-.98-.56c-.4.23-1.23.38-2.49.43l-.41-.02-.06-.03c-.39-.65-.54-.99-.5-1.02.95,0,1.65-.05,2.08-.19l-1.63-.94c-.41.13-.93.22-1.57.26-.78.02-1.53-.18-2.27-.61-.93-.54-1.19-1.14-.78-1.83.12-.13.22-.23.32-.28l-.57-.33s-.04-.04,0-.06l.82-.47ZM66.12,281.26c.28.16.64.2,1.08.11l-1.32-.76c-.21.22-.16.42.15.6l.09.05ZM71.32,282.75c.23-.23.21-.43-.06-.58l-.19-.11c-.28-.16-.65-.19-1.1-.09l1.35.78Z" style="fill: #ffdf85; stroke-width: 0px;"/>
            </g>
          </g>
        </g>
      </g>
    </g>
  </g>
</svg>