<?xml version="1.0" encoding="UTF-8"?>
<svg xmlns="http://www.w3.org/2000/svg" xmlns:xlink="http://www.w3.org/1999/xlink" viewBox="0 0 500 400">
  <defs>
    <linearGradient id="New_Gradient_Swatch_1" data-name="New Gradient Swatch 1" x1="442.34" y1="273.88" x2="477.42" y2="273.88" gradientUnits="userSpaceOnUse">
      <stop offset="0" stop-color="#000" stop-opacity=".3"/>
      <stop offset="1" stop-color="#fff" stop-opacity="0"/>
    </linearGradient>
    <linearGradient id="linear-gradient" x1="438.38" y1="263.31" x2="446.3" y2="263.31" gradientUnits="userSpaceOnUse">
      <stop offset="0" stop-color="#3a4983"/>
      <stop offset="1" stop-color="#282a55"/>
    </linearGradient>
    <linearGradient id="linear-gradient-2" x1="438.38" y1="263.07" x2="446.3" y2="263.07" gradientUnits="userSpaceOnUse">
      <stop offset="0" stop-color="#d1d3d4"/>
      <stop offset=".57" stop-color="#edeeef"/>
      <stop offset="1" stop-color="#fff"/>
    </linearGradient>
    <linearGradient id="linear-gradient-3" x1="426.53" y1="224.01" x2="458.16" y2="224.01" gradientUnits="userSpaceOnUse">
      <stop offset="0" stop-color="#2ca2a0"/>
      <stop offset="1" stop-color="#18898e"/>
    </linearGradient>
    <linearGradient id="linear-gradient-4" x1="437.69" y1="221.8" x2="451.7" y2="266.21" xlink:href="#linear-gradient-2"/>
    <linearGradient id="New_Gradient_Swatch_1-2" data-name="New Gradient Swatch 1" x1="388.69" y1="306.45" x2="423.77" y2="306.45" xlink:href="#New_Gradient_Swatch_1"/>
    <linearGradient id="linear-gradient-5" x1="384.73" y1="295.87" x2="392.64" y2="295.87" xlink:href="#linear-gradient"/>
    <linearGradient id="linear-gradient-6" x1="384.73" y1="295.64" x2="392.64" y2="295.64" xlink:href="#linear-gradient-2"/>
    <linearGradient id="linear-gradient-7" x1="372.87" y1="256.58" x2="404.5" y2="256.58" xlink:href="#linear-gradient-3"/>
    <linearGradient id="linear-gradient-8" x1="384.03" y1="254.36" x2="398.04" y2="298.77" xlink:href="#linear-gradient-2"/>
    <linearGradient id="New_Gradient_Swatch_1-3" data-name="New Gradient Swatch 1" x1="149.39" y1="294.2" x2="195.18" y2="294.2" xlink:href="#New_Gradient_Swatch_1"/>
    <linearGradient id="linear-gradient-9" x1="-2425.13" y1="236.86" x2="-2409.34" y2="236.86" gradientTransform="translate(-2266.97) rotate(-180) scale(1 -1)" gradientUnits="userSpaceOnUse">
      <stop offset="0" stop-color="#fcd24a"/>
      <stop offset="1" stop-color="#e5bb2a"/>
    </linearGradient>
    <linearGradient id="linear-gradient-10" x1="-2434.14" y1="250.01" x2="-2418.13" y2="250.01" xlink:href="#linear-gradient-9"/>
    <linearGradient id="linear-gradient-11" x1="-2279.82" y1="-201.02" x2="-2272.37" y2="-201.02" gradientTransform="translate(-2000.76 -490.28) rotate(-156.22) scale(1 -1)" xlink:href="#linear-gradient-9"/>
    <linearGradient id="New_Gradient_Swatch_1-4" data-name="New Gradient Swatch 1" x1="193.06" y1="267.5" x2="209.14" y2="267.5" xlink:href="#New_Gradient_Swatch_1"/>
    <linearGradient id="linear-gradient-12" x1="173.27" y1="260.48" x2="200.23" y2="260.48" gradientUnits="userSpaceOnUse">
      <stop offset="0" stop-color="#2ca2a0"/>
      <stop offset=".29" stop-color="#269a9a"/>
      <stop offset=".69" stop-color="#18898e"/>
      <stop offset=".86" stop-color="#259999"/>
      <stop offset="1" stop-color="#2ca2a0"/>
    </linearGradient>
    <linearGradient id="linear-gradient-13" x1="173.28" y1="248.84" x2="200.22" y2="248.84" xlink:href="#linear-gradient-3"/>
    <linearGradient id="New_Gradient_Swatch_1-5" data-name="New Gradient Swatch 1" x1="186.55" y1="278.74" x2="223.57" y2="278.74" xlink:href="#New_Gradient_Swatch_1"/>
    <linearGradient id="linear-gradient-14" x1="-1148.55" y1="269.88" x2="-1144.79" y2="269.88" gradientTransform="translate(-939.57) rotate(-180) scale(1 -1)" gradientUnits="userSpaceOnUse">
      <stop offset="0" stop-color="#fcd24a"/>
      <stop offset="1" stop-color="#e1b725"/>
    </linearGradient>
    <linearGradient id="linear-gradient-15" x1="-1144.61" y1="272.15" x2="-1140.85" y2="272.15" xlink:href="#linear-gradient-14"/>
    <linearGradient id="linear-gradient-16" x1="-1150.28" y1="275.55" x2="-1122.26" y2="275.55" xlink:href="#linear-gradient-14"/>
  </defs>
  <g style="isolation: isolate;">
    <g id="Layer_2" data-name="Layer 2">
      <g id="Layer_2-2" data-name="Layer 2">
        <g id="Middle">
          <rect width="500" height="400" style="fill: none; stroke-width: 0px;"/>
          <g>
            <rect x="442.34" y="270.82" width="35.09" height="6.11" style="fill: url(#New_Gradient_Swatch_1); mix-blend-mode: multiply; stroke-width: 0px;"/>
            <path d="M444.93,276.17c-.21.12-.43.23-.67.32-1.6.65-3.67.63-4.92-.09-.56-.32-.88-.75-.94-1.2h-.02s0-24.69,0-24.69l7.9-.85v24.49c.11.69-.35,1.45-1.35,2.02Z" style="fill: url(#linear-gradient); stroke-width: 0px;"/>
            <path d="M444.93,276.17c-.21.12-.43.23-.67.32.04-2.31-.16-6.35-1.85-8.75-1.03-1.45-2.57-4.27-4.03-7.07v-10.16l7.9-.85v24.49c.11.69-.35,1.45-1.35,2.02Z" style="fill: url(#linear-gradient-2); mix-blend-mode: multiply; stroke-width: 0px;"/>
            <path d="M458.16,246.22c0,8.73-7.08,15.82-15.82,15.82-8.02,0-14.65-5.98-15.67-13.72-.09-.69-.14-1.38-.14-2.09,0-8.56,6.81-58.24,15.31-60.17.17-.04.34-.06.51-.06,8.73,0,15.82,51.49,15.82,60.23Z" style="fill: url(#linear-gradient-3); stroke-width: 0px;"/>
            <path d="M458.16,246.22c0,8.73-7.08,15.82-15.82,15.82-8.02,0-14.65-5.98-15.67-13.72,2.43,1.55,6.43,2.77,12.37.87,9.18-2.94,4.65-47.68,2.8-63.13.17-.04.34-.06.51-.06,8.73,0,15.82,51.49,15.82,60.23Z" style="fill: url(#linear-gradient-4); mix-blend-mode: multiply; stroke-width: 0px;"/>
          </g>
          <g>
            <rect x="388.69" y="303.39" width="35.09" height="6.11" style="fill: url(#New_Gradient_Swatch_1-2); mix-blend-mode: multiply; stroke-width: 0px;"/>
            <path d="M391.28,308.73c-.21.12-.43.23-.67.32-1.6.65-3.67.63-4.92-.09-.56-.33-.88-.75-.94-1.2h-.02s0-24.69,0-24.69l7.9-.85v24.48c.11.69-.35,1.45-1.35,2.02Z" style="fill: url(#linear-gradient-5); stroke-width: 0px;"/>
            <path d="M391.28,308.73c-.21.12-.43.23-.67.32.04-2.31-.16-6.35-1.85-8.75-1.03-1.45-2.57-4.27-4.03-7.07v-10.16l7.9-.85v24.48c.11.69-.35,1.45-1.35,2.02Z" style="fill: url(#linear-gradient-6); mix-blend-mode: multiply; stroke-width: 0px;"/>
            <path d="M404.5,278.78c0,8.73-7.08,15.82-15.82,15.82-8.02,0-14.65-5.98-15.68-13.72-.09-.69-.14-1.38-.14-2.09,0-8.56,6.81-58.24,15.3-60.17.17-.04.34-.06.51-.06,8.73,0,15.82,51.49,15.82,60.23Z" style="fill: url(#linear-gradient-7); stroke-width: 0px;"/>
            <path d="M404.5,278.78c0,8.73-7.08,15.82-15.82,15.82-8.02,0-14.65-5.98-15.68-13.72,2.43,1.55,6.43,2.77,12.37.87,9.18-2.94,4.65-47.68,2.8-63.13.17-.04.34-.06.51-.06,8.73,0,15.82,51.49,15.82,60.23Z" style="fill: url(#linear-gradient-8); mix-blend-mode: multiply; stroke-width: 0px;"/>
          </g>
          <g>
            <path d="M195.18,290.48h-39.31s-7.6,4.86-6.33,5.55c4.95,2.7,45.64,1.72,45.64,1.72v-7.27Z" style="fill: url(#New_Gradient_Swatch_1-3); mix-blend-mode: multiply; stroke-width: 0px;"/>
            <path d="M142.4,245.72s-1.07-.1-1.68.33c-.61.43-2.23.88-1.82,1.42.41.54,1.58-.18,1.45.1-.13.28-2.79,3.03-2.48,3.37.3.34.77.04.77.04,0,0-.58.83-.32,1.12.27.29.65.14.98-.19,0,0,.06.82,1.01-.01,0,0,.09.36.8-.18.71-.54,2.7-2.32,2.91-4.62,0,0-1.14-1.4-1.62-1.37Z" style="fill: #f3b698; stroke-width: 0px;"/>
            <path d="M152.67,295.65c.68-.2,2.94-2.65,2.94-2.65l-.08,1.04.35.33h0s.44-.25.44-.25l.96-2.72c.81-2.3-.6-2.31-.6-2.31,0,0-2.13-.75-4,2.4-.85,1.43-2.9,2.1-3.97,2.92-1.07.82.15,2.33,3.94,1.24Z" style="fill: #282a55; stroke-width: 0px;"/>
            <path d="M152.98,271.24s2.28,14.89,1.48,17.57c-1.18,4.01-4.33,4.82-4.1,5.12,1.1,1.51,6.8-3.62,6.73-4.31-.1-1.04-.05-.41-.08-.85-.03-.44,3.99-14.53-.54-18.16l-3.49.62Z" style="fill: #f3b698; stroke-width: 0px;"/>
            <polygon points="155.6 293 155.52 294.04 155.88 294.37 156.22 292.95 155.6 293" style="fill: #393939; stroke-width: 0px;"/>
            <path d="M169.1,297c.64-.31,1.88-4.09,1.88-4.09l.27,1.01.44.19h0l.33-.39v-2.87c0-2.45-1.32-1.98-1.32-1.98,0,0-2.26,0-2.97,3.58-.33,1.63-2.04,2.94-2.77,4.07-.74,1.12.85,2.09,4.14.47Z" style="fill: #282a55; stroke-width: 0px;"/>
            <path d="M161.29,273.25s7.08,13.29,7.23,16.08c.21,4.18-2.49,5.98-2.17,6.2,1.54,1.05,5.12-5.59,4.83-6.22-.44-.94-.42-1.33-.53-1.77-.17-.72-.8-14.12-6.27-16.04l-3.09,1.74Z" style="fill: #f3b698; stroke-width: 0px;"/>
            <path d="M142.38,245.57c-.12,1.77,1.83,2.09,1.83,2.09,0,0,3.41-3.51,5.47-5.67.5-.53.93-.98,1.2-1.28.57-.62,1.59-2.08,2.6-3.58,1.01-1.53,2.01-3.1,2.5-3.87.09-.15.18-.3.29-.47,0-.01,0-.02,0-.02.51-.84,1.13-1.95,1.51-3,.11-.3.21-.61.27-.89.25-1.15.01-1.81-.27-2.17-.26-.35-.56-.44-.56-.44-.05-.02-.09-.03-.14-.05-.13-.05-.27-.09-.4-.11-.01,0-.03,0-.03,0-.22-.04-.42-.05-.62-.04h-.03c-.38.03-.73.14-1.06.31-1.87.97-3.02,3.95-3.43,5.26-.02.05-1.96,5.34-2.94,6.61-.98,1.27-6.19,7.32-6.19,7.32Z" style="fill: url(#linear-gradient-9); stroke-width: 0px;"/>
            <path d="M153.48,237.13c1.01-1.53,2.01-3.1,2.5-3.87.09-.15.18-.3.29-.47,0-.01,0-.02,0-.02.51-.84,1.13-1.95,1.51-3,.07-.57.1-1.12.07-1.62-.08-1.07-.43-1.64-.78-1.93-.03-.04-.07-.06-.1-.08-.1,0-.2-.02-.3-.03-.01,0-.03,0-.03,0-.23-.01-.44-.03-.62-.04h-.03c-.44-.03-.78.09-1.06.31-.99.78-1.26,2.93-2.25,5.59-.85,2.26.07,4.16.79,5.17Z" style="fill: #d1d3d4; mix-blend-mode: multiply; stroke-width: 0px;"/>
            <path d="M151.6,269.99c1.9,1.92,3.75,3,5.45,3.53,5.04,1.58,8.77-1.59,8.77-1.59,2.02-14.14-1.24-26.27-1.67-29.45-.16-1.25.24-3,.8-4.74.2-.62.42-1.25.64-1.84.62-1.67,1.25-3.17,1.49-4,.05-.17.08-.31.09-.42.17-1.42-4.78-4.38-4.78-4.38-.74-.45-4.43-.93-6.22-1.03-1.78-.1-1.86,2.28-3.02,5.39-1.17,3.11,1.32,5.44,1.32,5.44.38.93-.7,6.69-2.41,10.42-1.71,3.73-.46,22.68-.46,22.68Z" style="fill: url(#linear-gradient-10); stroke-width: 0px;"/>
            <path d="M155.11,221.55s-.29,6.96.6,7.19c.89.23,3.78-.14,4.27-1.36.5-1.22,1.03-4.04.26-4.97-.77-.93-6.29-3.1-6.13-2.78.15.32,1.01,1.5.99,1.93Z" style="fill: #282a55; stroke-width: 0px;"/>
            <path d="M158.56,227.3s.31,1.99.55,2.27c.61.72,3.52.42,4.13-1.1l-.46-4.23-4.22,3.05Z" style="fill: #e5a488; stroke-width: 0px;"/>
            <path d="M158.66,214.79c-1.93.51-4.03,3.84-3.47,7.62.7,4.76,2.67,7.25,5.47,5.32,2.01-1.39,4.1-3.01,3.32-9.19-.39-3.06-3.72-4.17-5.32-3.75Z" style="fill: #f3b698; stroke-width: 0px;"/>
            <path d="M156.16,215.33c-.7.78-1.84,2.1-2.09,3.61-.17,1,.76,2.14,3.09,1.86.81-.09,1.55-.43,3.11-1.09.65-.27.65,2.88.65,3.7,0,1.75-1.77,6.48.56,7.24,2.33.76,4.31-.18,4.78-4.49.47-4.31.53-10.75-3.67-11.46,0,0-3.01-3.15-6.41.62Z" style="fill: #282a55; stroke-width: 0px;"/>
            <path d="M162.8,251.06c-1.4-5.59.4-10.2.81-11.36.41-1.17.53-4.28.53-4.28h0c-.3-1.75-.11-3.52,1.56-4.23,0,0,.65-.13,1.47.52-.36,1.22-1.48,3.75-2.29,6.27,0,0,0-.01,0-.02-.53,1.67-.89,3.33-.73,4.52.42,3.19,3.69,15.31,1.67,29.45,0,0-3.73,3.17-8.77,1.59,9.72.37,7.16-16.87,5.76-22.47Z" style="fill: #d1d3d4; mix-blend-mode: multiply; stroke-width: 0px;"/>
            <polygon points="170.98 292.91 171.25 293.92 171.7 294.11 171.54 292.66 170.98 292.91" style="fill: #393939; stroke-width: 0px;"/>
            <path d="M158.49,254.55s-.98-.09-1.53.3c-.55.39-2.04.8-1.66,1.29.37.5,1.44-.16,1.32.09-.12.26-2.55,2.77-2.27,3.08.28.31.7.03.7.03,0,0-.53.76-.29,1.02.24.26.59.13.89-.17,0,0,.05.76.92-.01,0,0,.09.33.74-.16.65-.49,2.46-2.12,2.66-4.23,0,0-1.04-1.28-1.48-1.25Z" style="fill: #f3b698; stroke-width: 0px;"/>
            <path d="M162.46,245.8c.47-1.55.41-7.24.41-7.3-.09-1.88.08-7.55,3.6-7.51,0,0,1.26.27,1.61,2.54.2,1.3-.04,3.06-.28,4.32h0s0,0,0,.02c-.04.19-.07.38-.11.55-.36,1.79-1.5,7.27-2.15,8.87-.77,1.92-5.38,8.7-5.38,8.7,0,0-1.47-.02-1.99-1.72,0,0,3.82-6.92,4.3-8.47Z" style="fill: url(#linear-gradient-11); stroke-width: 0px;"/>
          </g>
          <g>
            <rect x="193.06" y="259.28" width="16.07" height="16.43" style="fill: url(#New_Gradient_Swatch_1-4); mix-blend-mode: multiply; stroke-width: 0px;"/>
            <path d="M200.23,252.55v19.21h0c-.05.57-.49,1.17-1.31,1.64l-2.69,1.55c-1.59.92-3.98,1.01-5.35.22l-16.68-9.63c-.62-.36-.93-.84-.93-1.35v-18.95l26.96,7.3Z" style="fill: url(#linear-gradient-12); stroke-width: 0px;"/>
            <path d="M200.23,252.55v.82c-.24.4-.64.76-1.17,1.07l-2.69,1.56c-.87.5-2.03.79-3.16.79-.95,0-1.83-.2-2.46-.57l-16.68-9.63c-.34-.2-.61-.44-.79-.71v-.62l26.96,7.3Z" style="fill: #30bfbf; stroke-width: 0px;"/>
            <path d="M200.22,252.56c-.05.58-.49,1.17-1.3,1.64l-.53.3-2.16,1.25c-1.58.92-3.98,1.01-5.35.22l-16.68-9.63c-.58-.33-.88-.77-.92-1.23.05-.57.49-1.17,1.3-1.64l2.69-1.55c1.58-.92,3.98-1.01,5.35-.22l1.47.85,5.21,3.01,9.99,5.77c.09.05.17.1.25.16.41.3.64.68.67,1.06Z" style="fill: url(#linear-gradient-13); stroke-width: 0px;"/>
            <path d="M183.88,266.9c-.13,0-.27-.04-.41-.12l-1.52-.88c-.42-.25-.76-.82-.76-1.31v-2.42c0-.31-.18-.8-.41-1.09-.84-1.08-1.34-2.34-1.34-3.38,0-1.23.7-2.02,1.79-2.02.5,0,1.07.17,1.65.51,1.74,1,3.16,3.25,3.16,5,0,.89-.35,1.54-.99,1.85-.13.06-.54.28-.54.61v2.54c0,.2-.05.37-.16.5-.11.14-.28.22-.47.22h0Z" style="fill: #30bfbf; stroke-width: 0px;"/>
            <path d="M183.01,256.41c-1.67-.96-3.02-.39-3.02,1.28,0,1.02.51,2.22,1.28,3.21.24.31.47.86.47,1.26v2.42c0,.4.28.88.62,1.07l1.52.88c.34.2.62.04.62-.36v-2.54c0-.4.34-.69.7-.86.51-.24.83-.79.83-1.6,0-1.67-1.35-3.8-3.02-4.76Z" style="fill: #262e54; stroke-width: 0px;"/>
            <polygon points="189.31 245.56 179.23 245.56 179.23 242.55 184.1 242.55 189.31 245.56" style="fill: #e6e7e8; mix-blend-mode: multiply; stroke-width: 0px;"/>
            <path d="M200.22,252.56c-.05.58-.49,1.17-1.3,1.64l-.53.3h-3.63v-3.01h4.79c.41.3.64.68.67,1.06Z" style="fill: #e6e7e8; mix-blend-mode: multiply; stroke-width: 0px;"/>
            <path d="M194.7,254.49c-1.11,0-2.01-.62-2.01-1.73v-7.97c0-3.02-2.63-7.1-5.74-8.89l-1.99-1.15c-1.53-.88-2.62-.88-3.09-.61-.56.32-.64,1.22-.64,1.72v7.97c0,1.11-.9,1.73-2.01,1.73s-2.01-.62-2.01-1.73v-7.97c0-2.37.94-4.21,2.65-5.2,1.92-1.11,4.51-.89,7.1.61l1.99,1.15c4.34,2.51,7.74,7.94,7.74,12.37v7.97c0,1.11-.9,1.73-2.01,1.73Z" style="fill: #d2e9e6; stroke-width: 0px;"/>
          </g>
          <g>
            <polygon points="223.57 272.34 207.05 271.96 186.55 284.97 223.57 285.52 223.57 272.34" style="fill: url(#New_Gradient_Swatch_1-5); mix-blend-mode: multiply; stroke-width: 0px;"/>
            <path d="M207.11,273.36c1.04,0,1.88-.84,1.88-1.88v-3.21c0-1.04-.84-1.88-1.88-1.88s-1.88.84-1.88,1.88v3.21c0,1.04.84,1.88,1.88,1.88Z" style="fill: url(#linear-gradient-14); stroke-width: 0px;"/>
            <path d="M203.16,275.64c1.04,0,1.88-.84,1.88-1.88v-3.21c0-1.04-.84-1.88-1.88-1.88s-1.88.84-1.88,1.88v3.21c0,1.04.84,1.88,1.88,1.88Z" style="fill: url(#linear-gradient-15); stroke-width: 0px;"/>
            <path d="M182.69,281.38c0,2.55,1.65,4.33,4,4.33.98,0,2.01-.31,3.06-.91,2.59-1.49,4.62-4.43,5.08-7.18l14.94-8.72c.9-.52,1.21-1.67.69-2.57-.52-.9-1.67-1.21-2.57-.69l-13.8,8.06c-.71-.97-1.82-1.56-3.17-1.56-.98,0-2.01.31-3.06.91-2.95,1.7-5.18,5.28-5.18,8.32ZM186.45,281.38c0-1.68,1.54-4.05,3.3-5.06.63-.37,1.04-.41,1.18-.41.08,0,.12.01.14.02,0,0,0,0,0,.01.03.06.09.23.09.54,0,1.68-1.54,4.05-3.3,5.06-.63.37-1.04.41-1.18.41-.08,0-.12,0-.14-.02h0s-.1-.22-.1-.55Z" style="fill: url(#linear-gradient-16); stroke-width: 0px;"/>
            <path d="M186.55,281.94s1.11,1.49,3.7-1.49c1.95-2.25.93-4.35.83-4.51.03.06.09.23.09.54,0,1.68-1.54,4.05-3.3,5.06-.63.37-1.04.41-1.18.41-.08,0-.12,0-.14-.02Z" style="fill: #e6e7e8; mix-blend-mode: multiply; stroke-width: 0px;"/>
          </g>
        </g>
      </g>
    </g>
  </g>
</svg>