<svg width="493.2441939417519" height="330.47724609374995" viewBox="0 0 350 234.5025801691886" class="looka-1j8o68f"><defs id="SvgjsDefs1980"></defs><g id="SvgjsG1981" featurekey="aMgJeN-0" transform="matrix(2.314814814814815,0,0,2.314814814814815,59.592592592592595,-47.39745016451235)" fill="#111111"><g xmlns="http://www.w3.org/2000/svg"><path fill="#111111" d="M85,77.524h-5.641V46.709l3.959,2.497c0.165,0.104,0.35,0.154,0.532,0.154c0.332,0,0.656-0.165,0.847-0.466   c0.295-0.467,0.155-1.085-0.313-1.379l-7.977-5.031V27.05c0-0.552-0.447-1-1-1h-6.312c-0.553,0-1,0.448-1,1v10.191L41.763,20.63   c-0.469-0.295-1.085-0.154-1.379,0.312c-0.295,0.467-0.155,1.085,0.312,1.379l4.063,2.562v16.933L15.783,53.125   c-0.515,0.201-0.769,0.781-0.568,1.295c0.154,0.396,0.532,0.637,0.933,0.637c0.12,0,0.243-0.021,0.363-0.068l4.613-1.801v24.337H15   c-0.553,0-1,0.447-1,1s0.447,1,1,1h70c0.553,0,1-0.447,1-1S85.553,77.524,85,77.524z M70.097,28.05h4.312v13.172l-4.312-2.72V28.05   z M77.359,45.447v32.077h-4.086V66.536c0-0.553-0.447-1-1-1h-20.43c-0.553,0-1,0.447-1,1v10.988h-4.086V26.145L77.359,45.447z    M52.844,67.536h9.516v9.988h-9.516V67.536z M64.359,67.536h6.914v9.988h-6.914V67.536z M23.124,52.407l21.634-8.444v33.562h-3.021   V63.677c0-0.553-0.447-1-1-1H27.144c-0.552,0-1,0.447-1,1v13.848h-3.02V52.407z M28.144,64.677h11.594v12.848H28.144V64.677z"></path><path fill="#111111" d="M27.144,58.715h13.594c0.553,0,1-0.447,1-1s-0.447-1-1-1H27.144c-0.552,0-1,0.447-1,1   S26.592,58.715,27.144,58.715z"></path><path fill="#111111" d="M55.798,50.569c2.755,0,4.996-2.241,4.996-4.996c0-2.754-2.241-4.996-4.996-4.996s-4.996,2.241-4.996,4.996   C50.802,48.328,53.043,50.569,55.798,50.569z M55.798,42.577c1.652,0,2.996,1.344,2.996,2.996s-1.344,2.996-2.996,2.996   s-2.996-1.344-2.996-2.996S54.146,42.577,55.798,42.577z"></path></g></g></svg>